<svg width="20" height="20" viewBox="0 0 20 20" fill="none" xmlns="http://www.w3.org/2000/svg">
<path fill-rule="evenodd" clip-rule="evenodd" d="M0.514771 10C0.51477 9.44771 0.962486 9 1.51477 9H9.00005V1.51472C9.00005 0.962432 9.44777 0.514717 10.0001 0.514717C10.5523 0.514717 11.0001 0.962433 11.0001 1.51472V9H18.4853C19.0376 9 19.4853 9.44771 19.4853 10C19.4853 10.5523 19.0376 11 18.4853 11H11.0001V18.4853C11.0001 19.0376 10.5523 19.4853 10.0001 19.4853C9.44777 19.4853 9.00005 19.0376 9.00005 18.4853V11H1.51477C0.962486 11 0.51477 10.5523 0.514771 10Z" fill="#007AFF"/>
</svg>
