<svg width="20" height="20" viewBox="0 0 20 20" fill="none" xmlns="http://www.w3.org/2000/svg">
<path d="M7.76043 4.18933C8.45288 2.35213 8.7991 1.43353 9.30274 1.17074C9.73906 0.943086 10.2609 0.943086 10.6973 1.17074C11.2009 1.43353 11.5471 2.35213 12.2396 4.18933L12.5733 5.07478C12.7735 5.60584 12.8735 5.87136 13.0461 6.07054C13.1985 6.24656 13.3908 6.38463 13.6073 6.47359C13.8522 6.57424 14.1386 6.58628 14.7114 6.61035L15.6664 6.65048C17.6479 6.73375 18.6387 6.77539 19.0471 7.16768C19.401 7.50753 19.5623 7.99818 19.4781 8.47873C19.3809 9.03343 18.6041 9.64279 17.0505 10.8615L16.3017 11.4489C15.8527 11.8012 15.6281 11.9773 15.4898 12.2011C15.3676 12.3988 15.2942 12.6222 15.2755 12.8532C15.2543 13.1146 15.3312 13.3876 15.4851 13.9335L15.7416 14.8437C16.2738 16.7324 16.5399 17.6767 16.2887 18.182C16.0711 18.6197 15.6489 18.9229 15.1605 18.9923C14.5968 19.0723 13.7705 18.5303 12.1179 17.4463L11.3214 16.9239C10.8437 16.6105 10.6048 16.4539 10.3468 16.393C10.1188 16.3392 9.88119 16.3392 9.65317 16.393C9.39516 16.4539 9.15631 16.6105 8.67861 16.9239L7.88212 17.4463C6.22951 18.5303 5.4032 19.0723 4.83949 18.9923C4.35114 18.9229 3.92892 18.6197 3.7113 18.182C3.4601 17.6767 3.72621 16.7324 4.25842 14.8437L4.51493 13.9335C4.66877 13.3876 4.74569 13.1146 4.72454 12.8532C4.70584 12.6222 4.63241 12.3988 4.51018 12.2011C4.37187 11.9773 4.14734 11.8012 3.69826 11.4489L2.9495 10.8615C1.39592 9.64279 0.619126 9.03343 0.521935 8.47873C0.437737 7.99818 0.599009 7.50753 0.952865 7.16768C1.36132 6.77539 2.35209 6.73375 4.33363 6.65048L5.28865 6.61035C5.86142 6.58628 6.14781 6.57424 6.39275 6.47359C6.60922 6.38463 6.80146 6.24656 6.95394 6.07054C7.12647 5.87136 7.22655 5.60584 7.4267 5.07478L7.76043 4.18933Z" fill="#007AFF"/>
</svg>
