<svg width="20" height="20" viewBox="0 0 20 20" fill="none" xmlns="http://www.w3.org/2000/svg">
<path d="M9.29575 2.16587C9.06998 2.16235 8.84647 2.18121 8.62664 2.22235C7.23375 2.48325 6.12717 3.59281 5.46469 5.17499C5.34939 5.17091 5.2343 5.16718 5.12159 5.16636C3.48738 5.15444 2.24859 5.48861 1.59734 6.11704C0.195286 7.47005 1.77231 9.85868 5.15789 11.8389C6.13092 15.6547 8.78961 18.2614 11.3732 17.7775C12.8068 17.5091 13.9358 16.3404 14.5908 14.6839C16.2451 14.719 17.5764 14.4125 18.277 13.7363C19.665 12.3971 18.1346 10.0428 14.8197 8.07456C13.9234 4.66963 11.6686 2.20251 9.29575 2.16587ZM9.02931 2.70933C11.1092 2.74122 13.0915 4.76256 14.0152 7.62372C13.6579 7.43445 13.2853 7.24969 12.8955 7.07163C10.4793 5.96798 7.82026 5.28189 5.60141 5.17987C6.22912 3.88413 7.20256 2.98525 8.40577 2.76158C8.61063 2.72352 8.81892 2.70607 9.02931 2.70933ZM5.21242 5.63658C5.23782 5.6367 5.26418 5.63806 5.28973 5.63837C4.76933 7.14337 4.62124 9.00274 4.96388 10.9432C5.01488 11.232 5.0761 11.5148 5.14552 11.7917C2.05972 9.96762 0.634352 7.7767 1.93426 6.52655C2.54257 5.94166 3.69485 5.62883 5.21242 5.63658ZM5.40008 5.64097C7.51017 5.68696 10.089 6.32694 12.4212 7.38999C13.0718 7.68652 13.6681 8.00353 14.2175 8.33075C14.2791 8.57758 14.3338 8.82892 14.3794 9.08531C14.7349 11.0842 14.5246 12.9911 13.8983 14.4548C11.8611 14.4062 9.30947 13.8051 6.89487 12.7044C6.29231 12.4298 5.73574 12.1376 5.21958 11.8361C5.13013 11.5104 5.05312 11.1752 4.99187 10.8309C4.65064 8.91242 4.83142 7.07946 5.40008 5.64097ZM14.9912 8.82245C17.4979 10.5281 18.5603 12.4348 17.3817 13.5681C16.8344 14.0943 15.8781 14.3809 14.6817 14.4439C15.2254 12.9247 15.385 11.0327 15.0361 9.05682C15.0222 8.9781 15.0065 8.90038 14.9912 8.82245ZM10 9.1618C9.7777 9.16181 9.5645 9.25012 9.40731 9.40731C9.25011 9.56451 9.1618 9.77771 9.1618 10C9.1618 10.2223 9.25011 10.4355 9.40731 10.5927C9.5645 10.7499 9.7777 10.8382 10 10.8382C10.2223 10.8382 10.4355 10.7499 10.5927 10.5927C10.7499 10.4355 10.8382 10.2223 10.8382 10C10.8382 9.77771 10.7499 9.56451 10.5927 9.40731C10.4355 9.25012 10.2223 9.16181 10 9.1618ZM5.23162 11.882C5.77102 12.1941 6.35382 12.4962 6.97869 12.7816C9.30864 13.8459 11.7537 14.4805 13.8133 14.6444C13.1876 15.9894 12.1969 16.9256 10.9655 17.1545C8.60833 17.5928 6.18359 15.2913 5.23162 11.882Z" fill="#007AFF"/>
</svg>
