<svg width="20" height="20" viewBox="0 0 20 20" fill="none" xmlns="http://www.w3.org/2000/svg">
<path fill-rule="evenodd" clip-rule="evenodd" d="M9.03114 1.51237C9.63771 1.19588 10.3623 1.19588 10.9689 1.51237C11.4327 1.7544 11.7104 2.22856 11.9226 2.67087C12.1458 3.13632 12.3851 3.7712 12.68 4.55352L12.9888 5.37294C13.1869 5.89851 13.2279 5.97528 13.2703 6.02422C13.3269 6.08958 13.3989 6.14158 13.481 6.17531C13.5443 6.20134 13.635 6.21612 14.2007 6.23989L15.0836 6.27699C15.9281 6.31247 16.6121 6.34121 17.1279 6.40715C17.6166 6.46962 18.156 6.58319 18.5322 6.94443C19.0267 7.41943 19.2544 8.10801 19.1358 8.78445C19.0454 9.30043 18.6729 9.70875 18.315 10.043C17.9365 10.3965 17.3999 10.8173 16.7381 11.3365L16.0455 11.8798C15.601 12.2285 15.5388 12.2916 15.5047 12.3468C15.4597 12.4196 15.433 12.5013 15.4262 12.5852C15.4211 12.6476 15.4331 12.7323 15.5856 13.2734L15.823 14.1159C16.0496 14.92 16.2336 15.5727 16.3297 16.0791C16.4209 16.5591 16.4793 17.1076 16.2456 17.5776C15.9404 18.1916 15.3505 18.6129 14.6731 18.709C14.1572 18.7823 13.654 18.5618 13.2201 18.3276C12.7633 18.0811 12.1927 17.7068 11.4885 17.2449L10.752 16.7618C10.2802 16.4524 10.1987 16.4121 10.1322 16.3964C10.0453 16.3759 9.9547 16.3759 9.86784 16.3964C9.80127 16.4121 9.71981 16.4524 9.24804 16.7618L8.51156 17.2449C7.80735 17.7068 7.23671 18.0811 6.77991 18.3276C6.34599 18.5618 5.84286 18.7823 5.32689 18.709C4.6495 18.6129 4.05966 18.1916 3.75438 17.5776C3.52069 17.1076 3.57916 16.5591 3.6703 16.0791C3.76646 15.5727 3.95041 14.92 4.17701 14.1159L4.41442 13.2734C4.56689 12.7323 4.5789 12.6476 4.57385 12.5852C4.56706 12.5013 4.54036 12.4196 4.49535 12.3468C4.46122 12.2916 4.39898 12.2285 3.95449 11.8798L3.26192 11.3365C2.60007 10.8173 2.06355 10.3965 1.68506 10.043C1.32708 9.70875 0.954597 9.30043 0.864191 8.78445C0.745669 8.10801 0.973281 7.41943 1.46786 6.94443C1.84398 6.58319 2.38343 6.46962 2.87209 6.40715C3.38795 6.34121 4.07188 6.31247 4.91647 6.27699L5.79931 6.23989C6.36502 6.21612 6.4557 6.20134 6.51904 6.17531C6.6011 6.14158 6.67314 6.08958 6.72976 6.02422C6.77215 5.97528 6.81313 5.89851 7.01122 5.37294L7.32005 4.55354C7.6149 3.77121 7.85418 3.13633 8.07745 2.67087C8.28961 2.22856 8.56727 1.7544 9.03114 1.51237Z" fill="#007AFF"/>
</svg>
