<svg width="24" height="24" viewBox="0 0 24 24" fill="none" xmlns="http://www.w3.org/2000/svg">
<path fill-rule="evenodd" clip-rule="evenodd" d="M12.6438 3.43914C12.3124 3.43914 12.0437 3.70781 12.0437 4.03923V4.36254H13.2439V4.03923C13.2439 3.70781 12.9752 3.43914 12.6438 3.43914ZM15.0439 4.36254V4.03923C15.0439 2.7137 13.9694 1.63914 12.6438 1.63914C11.3183 1.63914 10.2437 2.7137 10.2437 4.03923V4.36254H8.54889C6.17105 4.36254 4.24342 6.29017 4.24342 8.66801V17.7435C4.24342 20.1214 6.17105 22.049 8.54889 22.049H16.3102C18.688 22.049 20.6156 20.1214 20.6156 17.7435V8.66801C20.6156 6.29016 18.688 4.36254 16.3102 4.36254H15.0439ZM8.54889 6.16254C7.16516 6.16254 6.04342 7.28428 6.04342 8.66801V17.7435C6.04342 19.1273 7.16516 20.249 8.54889 20.249H16.3102C17.6939 20.249 18.8156 19.1273 18.8156 17.7435V8.66801C18.8156 7.28427 17.6939 6.16254 16.3102 6.16254H8.54889ZM8.10078 9.34763C8.10078 8.85057 8.50372 8.44763 9.00077 8.44763H15.8583C16.3553 8.44763 16.7583 8.85057 16.7583 9.34763C16.7583 9.84468 16.3553 10.2476 15.8583 10.2476H9.00077C8.50372 10.2476 8.10078 9.84468 8.10078 9.34763ZM8.10078 12.5249C8.10078 12.0279 8.50372 11.6249 9.00077 11.6249H15.8583C16.3553 11.6249 16.7583 12.0279 16.7583 12.5249C16.7583 13.022 16.3553 13.4249 15.8583 13.4249H9.00077C8.50372 13.4249 8.10078 13.022 8.10078 12.5249ZM9.38656 15.7022C9.38656 15.2052 9.7895 14.8022 10.2866 14.8022H14.5725C15.0696 14.8022 15.4725 15.2052 15.4725 15.7022C15.4725 16.1993 15.0696 16.6022 14.5725 16.6022H10.2866C9.7895 16.6022 9.38656 16.1993 9.38656 15.7022Z" fill="#007AFF"/>
</svg>
