<svg width="24" height="24" viewBox="0 0 24 24" fill="none" xmlns="http://www.w3.org/2000/svg">
<path fill-rule="evenodd" clip-rule="evenodd" d="M18.0036 3.54676C18.3967 3.69083 18.5979 4.12444 18.453 4.51525L12.744 19.9103C12.6894 20.1516 12.5167 20.3613 12.2659 20.4532C12.1781 20.4854 12.0881 20.5004 11.9997 20.5C11.9115 20.5004 11.8217 20.4854 11.7341 20.4532C11.4833 20.3613 11.3106 20.1516 11.2561 19.9103L5.54703 4.51525C5.40211 4.12444 5.60332 3.69083 5.99645 3.54676C6.38957 3.40269 6.82575 3.60271 6.97068 3.99352L8.84723 9.05387H15.1528L17.0293 3.99352C17.1742 3.60271 17.6104 3.40269 18.0036 3.54676ZM14.5934 10.5622H9.40658L12 17.5557L14.5934 10.5622Z" fill="#007AFF"/>
</svg>
