<svg width="24" height="24" viewBox="0 0 24 24" fill="none" xmlns="http://www.w3.org/2000/svg">
<path d="M9.28894 4.89807C10.1272 2.6526 10.5463 1.52987 11.1559 1.20869C11.6841 0.930438 12.3159 0.930438 12.8441 1.20869C13.4537 1.52987 13.8728 2.6526 14.7111 4.89807L15.115 5.98029C15.3573 6.62936 15.4785 6.95389 15.6873 7.19732C15.8719 7.41246 16.1046 7.58121 16.3667 7.68994C16.6632 7.81296 17.0099 7.82767 17.7032 7.85709L18.8593 7.90614C21.258 8.00792 22.4573 8.05881 22.9518 8.53828C23.3801 8.95365 23.5754 9.55333 23.4734 10.1407C23.3558 10.8186 22.4155 11.5634 20.5348 13.053L19.6284 13.7709C19.0848 14.2014 18.813 14.4167 18.6456 14.6902C18.4976 14.9319 18.4087 15.2049 18.3861 15.4873C18.3605 15.8067 18.4536 16.1404 18.6398 16.8076L18.9503 17.9201C19.5946 20.2285 19.9167 21.3827 19.6126 22.0002C19.3492 22.5352 18.8381 22.9058 18.2469 22.9905C17.5645 23.0884 16.5643 22.4259 14.5637 21.101L13.5996 20.4625C13.0213 20.0796 12.7322 19.8881 12.4199 19.8137C12.1438 19.7479 11.8562 19.7479 11.5801 19.8137C11.2678 19.8881 10.9787 20.0796 10.4004 20.4625L9.43625 21.101C7.43572 22.4259 6.43545 23.0884 5.75307 22.9905C5.16191 22.9058 4.6508 22.5352 4.38737 22.0002C4.08328 21.3827 4.40541 20.2285 5.04967 17.9201L5.36017 16.8076C5.5464 16.1404 5.63952 15.8067 5.61391 15.4873C5.59128 15.2049 5.50239 14.9319 5.35443 14.6902C5.18701 14.4167 4.9152 14.2014 4.37158 13.7709L3.46519 13.053C1.58453 11.5634 0.644205 10.8186 0.526553 10.1407C0.424629 9.55333 0.619853 8.95365 1.0482 8.53828C1.54265 8.05881 2.74201 8.00792 5.14071 7.90614L6.29678 7.85709C6.99014 7.82767 7.33683 7.81296 7.63333 7.68994C7.89537 7.58121 8.12809 7.41246 8.31266 7.19732C8.52152 6.95389 8.64266 6.62936 8.88496 5.98029L9.28894 4.89807Z" fill="#007AFF"/>
</svg>
