<svg width="24" height="24" viewBox="0 0 24 24" fill="none" xmlns="http://www.w3.org/2000/svg">
<path fill-rule="evenodd" clip-rule="evenodd" d="M13.6469 5.01094C13.9788 4.88748 14.3052 4.78468 14.6236 4.70281C16.5983 4.19501 17.9753 4.54035 18.7175 5.28255C19.4597 6.02476 19.8051 7.40173 19.2973 9.3765C19.2154 9.69492 19.1126 10.0213 18.9891 10.3532C18.3361 9.3402 17.5347 8.34234 16.5962 7.40388C15.6577 6.46541 14.6599 5.66397 13.6469 5.01094ZM12 4.08486C15.0874 2.5981 18.0937 2.53742 19.7782 4.22189C21.4627 5.90637 21.402 8.9127 19.9152 12.0001C21.402 15.0874 21.4627 18.0938 19.7782 19.7782C18.0937 21.4627 15.0874 21.402 12 19.9153C8.91264 21.402 5.90631 21.4627 4.22183 19.7782C2.53736 18.0938 2.59804 15.0874 4.08479 12.0001C2.59804 8.9127 2.53736 5.90637 4.22183 4.2219C5.90631 2.53742 8.91263 2.5981 12 4.08486ZM5.01088 10.3532C4.88742 10.0213 4.78463 9.69492 4.70275 9.37651C4.19495 7.40174 4.54029 6.02476 5.28249 5.28256C6.0247 4.54035 7.40168 4.19501 9.37645 4.70281C9.69486 4.78469 10.0212 4.88748 10.3531 5.01095C9.34013 5.66397 8.34228 6.46541 7.40381 7.40387C6.46535 8.34234 5.66391 9.3402 5.01088 10.3532ZM5.77268 12.0001C6.43005 10.8096 7.33068 9.59833 8.46447 8.46453C9.59826 7.33074 10.8095 6.43012 12 5.77274C13.1905 6.43012 14.4017 7.33074 15.5355 8.46454C16.6693 9.59833 17.57 10.8096 18.2273 12.0001C17.57 13.1905 16.6693 14.4018 15.5355 15.5356C14.4017 16.6694 13.1905 17.57 12 18.2274C10.8095 17.57 9.59827 16.6694 8.46447 15.5356C7.33068 14.4018 6.43005 13.1905 5.77268 12.0001ZM5.01088 13.647C4.88742 13.9789 4.78462 14.3052 4.70275 14.6236C4.19495 16.5984 4.54029 17.9754 5.28249 18.7176C6.0247 19.4598 7.40167 19.8051 9.37644 19.2973C9.69486 19.2154 10.0212 19.1127 10.3531 18.9892C9.34014 18.3362 8.34228 17.5347 7.40381 16.5963C6.46535 15.6578 5.66391 14.6599 5.01088 13.647ZM13.6469 18.9892C13.9788 19.1127 14.3052 19.2155 14.6236 19.2973C16.5983 19.8051 17.9753 19.4598 18.7175 18.7176C19.4597 17.9754 19.8051 16.5984 19.2973 14.6236C19.2154 14.3052 19.1126 13.9789 18.9891 13.647C18.3361 14.6599 17.5347 15.6578 16.5962 16.5963C15.6577 17.5347 14.6599 18.3362 13.6469 18.9892ZM14 12C14 13.1046 13.1046 14 12 14C10.8954 14 10 13.1046 10 12C10 10.8955 10.8954 10 12 10C13.1046 10 14 10.8955 14 12Z" fill="#007AFF"/>
</svg>
