<svg width="24" height="24" viewBox="0 0 24 24" fill="none" xmlns="http://www.w3.org/2000/svg">
<path d="M11.9977 6.00403C11.8794 6.00398 11.7623 6.02723 11.653 6.07246C11.5438 6.11769 11.4445 6.18401 11.3609 6.26763C11.2772 6.35125 11.2109 6.45053 11.1657 6.55979C11.1205 6.66906 11.0972 6.78616 11.0973 6.90442V12.0294C11.0972 12.1477 11.1205 12.2648 11.1657 12.374C11.211 12.4833 11.2773 12.5825 11.3609 12.6661L13.7266 15.0374C13.8101 15.121 13.9094 15.1874 14.0187 15.2327C14.1279 15.278 14.245 15.3013 14.3633 15.3013C14.4815 15.3013 14.5987 15.278 14.7079 15.2327C14.8172 15.1874 14.9164 15.121 15 15.0374C15.0837 14.9538 15.15 14.8545 15.1953 14.7453C15.2406 14.636 15.2639 14.5189 15.2639 14.4006C15.2639 14.2824 15.2406 14.1653 15.1953 14.056C15.15 13.9468 15.0837 13.8475 15 13.7639L12.898 11.6564V6.90442C12.8981 6.78616 12.8748 6.66906 12.8296 6.55979C12.7844 6.45053 12.7181 6.35125 12.6344 6.26763C12.5508 6.18401 12.4515 6.11769 12.3423 6.07246C12.233 6.02723 12.1159 6.00398 11.9977 6.00403ZM11.9977 2.67004C6.77774 2.67004 2.52499 6.84935 2.52499 12.0294C2.52499 17.2094 6.77774 21.3888 11.9977 21.3888C17.2175 21.3888 21.4703 17.2094 21.4703 12.0294C21.4703 6.84935 17.2175 2.67004 11.9977 2.67004ZM11.9977 4.47083C16.2459 4.47083 19.6695 7.86588 19.6695 12.0294C19.6695 16.1929 16.2459 19.588 11.9977 19.588C7.74928 19.588 4.32578 16.1929 4.32578 12.0294C4.32578 7.86588 7.74928 4.47083 11.9977 4.47083Z" fill="#007AFF"/>
</svg>
