<svg width="24" height="24" viewBox="0 0 24 24" fill="none" xmlns="http://www.w3.org/2000/svg">
<path d="M3.71525 4C2.92283 4 2.27118 4.65327 2.27118 5.44739V16.3454H0V16.7874V17.2293V17.747C1.26621e-05 17.7902 0.00632432 17.8331 0.0187343 17.8744C0.0187343 17.8744 0.10839 18.1718 0.353372 18.4469C0.598353 18.722 1.0388 19 1.64175 19H6.47289H17.5271H22.3583C22.9612 19 23.4016 18.722 23.6466 18.4469C23.8916 18.1718 23.9813 17.8744 23.9813 17.8744C23.9937 17.8331 24 17.7902 24 17.747V17.2293V16.7874V16.3454H21.7288V5.44739C21.7288 4.65327 21.0772 4 20.2848 4H19.3342H4.66576H3.71525ZM3.71525 4.88393H4.66576H19.3342H20.2848C20.6005 4.88393 20.8468 5.13098 20.8468 5.44739V16.3454H20.0955V5.63643H19.2134H17.3064H6.69361H4.78656H3.90453V16.3454H3.15321V5.44739C3.15321 5.13098 3.39952 4.88393 3.71525 4.88393ZM4.78656 6.52036H6.69361H17.3064H19.2134V16.3454H17.8844H6.11564H4.78656V16.2183L7.12945 13.8704L8.06144 14.8046C8.1024 14.8456 8.15103 14.8782 8.20455 14.9004C8.25807 14.9226 8.31543 14.9341 8.37336 14.9341C8.43129 14.9341 8.48866 14.9226 8.54218 14.9004C8.5957 14.8782 8.64432 14.8456 8.68528 14.8046L11.5534 11.9301L12.8293 13.2087C12.912 13.2916 13.0241 13.3381 13.1411 13.3381C13.258 13.3381 13.3702 13.2916 13.4529 13.2087L17.2026 9.45096V11.0116H18.0846V7.94185H15.0595V8.82578H16.579L13.1411 12.2713L11.8652 10.9926C11.7825 10.9098 11.6703 10.8633 11.5534 10.8633C11.4364 10.8633 11.3243 10.9098 11.2416 10.9926L8.37347 13.8669L7.44127 12.9329C7.35856 12.8501 7.2464 12.8035 7.12945 12.8035C7.01251 12.8035 6.90035 12.8501 6.81764 12.9329L4.78656 14.9684V6.52036ZM5.63328 7.46687V8.35079H9.81366V7.46687H5.63328ZM5.63328 9.07503V9.95895H8.8091V9.07503H5.63328ZM0.88203 17.2293H6.11564H17.8844H23.118V17.6502C23.1102 17.6729 23.0899 17.7446 22.9886 17.8584C22.8725 17.9887 22.7127 18.1161 22.3583 18.1161H17.5271H6.47289H1.64175C1.28726 18.1161 1.12747 17.9887 1.01145 17.8584C0.910115 17.7446 0.88984 17.6729 0.88203 17.6502V17.2293Z" fill="#007AFF"/>
</svg>
