<svg width="24" height="24" viewBox="0 0 24 24" fill="none" xmlns="http://www.w3.org/2000/svg">
<path fill-rule="evenodd" clip-rule="evenodd" d="M7.99756 2.84998V4.65076C8.60507 4.65076 9.09717 5.14285 9.09717 5.75037V9.3363C9.09717 9.3628 9.08662 9.38782 9.06787 9.40662L6.54248 11.932C3.14067 15.3338 5.5499 21.1508 10.3608 21.1508H13.6343C18.4452 21.1508 20.8544 15.3338 17.4526 11.932L14.9272 9.40662C14.9084 9.38782 14.8979 9.3628 14.8979 9.3363V5.75037C14.8979 5.14285 15.3901 4.65076 15.9976 4.65076V2.84998H7.99756ZM10.6812 4.65076H13.314C13.1748 4.98997 13.0972 5.36101 13.0972 5.75037V9.3363C13.0972 9.8402 13.2975 10.3237 13.6538 10.6801L16.1792 13.2054C18.4471 15.4733 16.8416 19.35 13.6343 19.35H10.3608C7.15353 19.35 5.54804 15.4733 7.81592 13.2054L10.3413 10.6801C10.6976 10.3237 10.8979 9.8402 10.8979 9.3363V5.75037C10.8979 5.36101 10.8203 4.98997 10.6812 4.65076ZM13.5483 12.7504C12.5818 12.7504 11.7983 13.5339 11.7983 14.5004C11.7983 15.4669 12.5818 16.2504 13.5483 16.2504C14.5148 16.2504 15.2983 15.4669 15.2983 14.5004C15.2983 13.5339 14.5148 12.7504 13.5483 12.7504ZM9.89795 15.7504C9.29043 15.7504 8.79834 16.2425 8.79834 16.85C8.79834 17.4575 9.29043 17.9496 9.89795 17.9496C10.5055 17.9496 10.9976 17.4575 10.9976 16.85C10.9976 16.2425 10.5055 15.7504 9.89795 15.7504Z" fill="#007AFF"/>
</svg>
