<svg width="24" height="24" viewBox="0 0 24 24" fill="none" xmlns="http://www.w3.org/2000/svg">
<path fill-rule="evenodd" clip-rule="evenodd" d="M9.65157 3.51629C9.35365 3.46991 9.04882 3.46999 8.63165 3.4701L8.569 3.47011L8.10369 3.47011C7.12728 3.4701 6.32846 3.47009 5.68414 3.53378C5.01542 3.59988 4.41697 3.74149 3.87912 4.08778C3.41335 4.38766 3.01719 4.78382 2.7173 5.24959C2.37101 5.78744 2.22941 6.38589 2.1633 7.05461C2.09961 7.69893 2.09963 8.49775 2.09964 9.47416L21.7925 9.41369C21.6796 8.53894 21.4355 7.77547 20.8516 7.15255C20.7943 7.09145 20.7351 7.03223 20.674 6.97497C20.0511 6.39112 19.2876 6.14702 18.4129 6.03408C17.5752 5.92591 16.5181 5.92593 15.2254 5.92596L14.4582 5.92596C13.9528 5.92596 13.7956 5.92347 13.6526 5.9012C13.3213 5.84963 13.0074 5.71873 12.7376 5.51966C12.6212 5.43374 12.5087 5.32374 12.153 4.96468L12.109 4.92017C11.8155 4.6237 11.601 4.40707 11.3584 4.22805C10.8551 3.85669 10.2696 3.6125 9.65157 3.51629ZM21.8977 11.5L2.09964 11.5877L2.09964 13.7012C2.09961 15.0511 2.09959 16.1548 2.21676 17.0263C2.33927 17.9376 2.60453 18.7285 3.236 19.36C3.86748 19.9915 4.65842 20.2567 5.56965 20.3792C6.44119 20.4964 7.54493 20.4964 8.89484 20.4964H15.1054C16.4553 20.4964 17.5591 20.4964 18.4306 20.3792C19.3418 20.2567 20.1328 19.9915 20.7643 19.36C21.3957 18.7285 21.661 17.9376 21.7835 17.0263C21.9007 16.1548 21.9007 15.0511 21.9006 13.7011V12.6012C21.9006 12.213 21.9006 11.8461 21.8977 11.5Z" fill="#007AFF"/>
</svg>
