<svg width="24" height="24" viewBox="0 0 24 24" fill="none" xmlns="http://www.w3.org/2000/svg">
<path d="M3.42422 16.9497C4.62409 19.024 6.55608 20.6225 8.86563 21.3931C8.13783 20.2726 7.47466 18.8029 7.03751 16.9497H3.42422ZM16.9633 16.9497C16.5262 18.8029 15.863 20.2726 15.1352 21.3931C17.4444 20.6227 19.3764 19.0245 20.5766 16.9497H16.9633ZM17.3461 9.25049C17.446 10.1035 17.5004 11.0194 17.5004 12.0005C17.5004 12.9815 17.446 13.8976 17.3461 14.7505H21.5141C21.7657 13.8785 21.9008 12.9559 21.9008 12.0005C21.9008 11.045 21.7657 10.1226 21.5141 9.25049H17.3461ZM15.1352 2.60596C15.863 3.7264 16.5262 5.19616 16.9633 7.04932H20.5766C19.3764 4.97457 17.4444 3.37633 15.1352 2.60596ZM12.0004 2.31494C11.2039 2.96736 10.0172 4.43759 9.30508 7.04932H14.6957C13.9835 4.43759 12.7969 2.96736 12.0004 2.31494ZM8.86563 2.60596C6.55608 3.37649 4.62409 4.9751 3.42422 7.04932H7.03751C7.47466 5.19615 8.13783 3.72641 8.86563 2.60596ZM2.48672 9.25049C2.23478 10.1236 2.10001 11.0463 2.10001 12.0005C2.10001 12.9547 2.23478 13.8774 2.48672 14.7505H6.65469C6.55476 13.8976 6.5004 12.9815 6.5004 12.0005C6.5004 11.0194 6.55476 10.1035 6.65469 9.25049H2.48672ZM8.86954 9.25049C8.76117 10.0829 8.69962 10.9977 8.69962 12.0005C8.69962 13.0032 8.76117 13.9181 8.86954 14.7505H15.1313C15.2397 13.9181 15.3012 13.0032 15.3012 12.0005C15.3012 10.9977 15.2397 10.0829 15.1313 9.25049H8.86954ZM9.30508 16.9497C10.0172 19.5615 11.2039 21.0317 12.0004 21.6841C12.7969 21.0317 13.9835 19.5615 14.6957 16.9497H9.30508Z" fill="#007AFF"/>
</svg>
