<svg width="24" height="24" viewBox="0 0 24 24" fill="none" xmlns="http://www.w3.org/2000/svg">
<path fill-rule="evenodd" clip-rule="evenodd" d="M23 12C23 18.0751 18.0751 23 12 23C5.92487 23 1 18.0751 1 12C1 5.92487 5.92487 1 12 1C18.0751 1 23 5.92487 23 12ZM16.0484 7H9.3431C8.81756 7 8.39152 7.42604 8.39152 7.95159C8.39152 8.47714 8.81756 8.90317 9.3431 8.90317H13.7511L7.27871 15.3755C6.9071 15.7471 6.9071 16.3497 7.27871 16.7213C7.65032 17.0929 8.25285 17.0929 8.62446 16.7213L15.0968 10.2489L15.0968 14.6569C15.0968 15.1824 15.5229 15.6085 16.0484 15.6085C16.574 15.6085 17 15.1824 17 14.6569L17 7.95159C17 7.42604 16.574 7 16.0484 7Z" fill="#007AFF"/>
</svg>
