<svg width="24" height="26" viewBox="0 0 24 26" fill="none" xmlns="http://www.w3.org/2000/svg">
<path d="M6.15289 0.503208C5.71323 0.555589 5.4226 1.24633 5.58114 2.33226C5.78754 3.74602 6.34433 4.87313 7.35449 5.92187C8.13554 6.73275 8.4127 6.57794 8.20297 7.69099C7.92408 9.17109 9.65362 10.3173 10.9658 9.71738C11.3642 9.53524 11.4875 9.59966 11.8752 10.1932C12.1219 10.5707 12.4671 11.224 12.6424 11.6451C12.8947 12.2509 13.0594 12.3968 13.4312 12.3435C13.8189 12.288 14.0044 11.9662 14.4934 10.5018C15.3152 8.04066 15.4405 5.96314 14.8595 4.42307C14.2841 2.89787 12.9115 0.979992 12.3482 0.899109C11.8921 0.833603 11.4549 1.08312 11.8752 2.22381C12.2276 3.18005 11.6302 3.07008 9.91902 2.80278C8.38696 2.56345 7.6834 2.15971 7.04038 1.15067C6.7341 0.670067 6.41668 0.47178 6.15289 0.503208ZM7.19642 3.23456C7.32477 3.25506 7.56523 3.36277 7.97703 3.56726C8.81829 3.98499 9.26365 4.05195 11.1832 4.04797L13.4125 4.04307L13.7116 4.76067C14.0911 5.67197 14.0897 7.36498 13.7087 8.80122C13.3447 10.1735 13.2785 10.2463 12.9529 9.63257C12.4156 8.61983 11.3628 7.50256 9.91699 6.41073C8.40387 5.2681 7.25311 4.05295 7.08954 3.42537C7.05183 3.28065 7.06807 3.21405 7.19642 3.23456ZM5.71077 4.91193C5.61223 4.90218 5.51479 4.95873 5.37268 5.07706C4.48902 5.8129 4.14652 7.92553 4.66764 9.42545C4.86885 10.0046 4.83433 10.1542 4.37181 10.7057C4.08373 11.0492 3.64337 11.872 3.39371 12.5339C2.75215 14.235 2.90222 16.4372 3.78869 18.3379C4.8207 20.5507 7.0654 22.6927 9.82312 24.0962C10.8394 24.6134 11.9297 24.8794 11.9297 24.6099C11.9297 24.5619 11.9835 24.3822 12.0492 24.2104C12.1367 23.9816 11.6543 23.6315 10.2474 22.9024C7.75121 21.6088 5.93211 19.9228 5.01427 18.0521C4.40838 16.8172 4.33567 16.4784 4.33727 14.8902C4.33925 12.9346 4.61078 12.1786 5.73921 10.985L6.36785 10.3196L6.01066 9.42382C5.54882 8.26569 5.55547 6.92923 6.02732 6.12777C6.3764 5.53484 6.37852 5.46858 6.05536 5.14434C5.90896 4.99745 5.8093 4.92169 5.71077 4.91193ZM9.355 7.58212C9.49754 7.57838 9.7537 7.73946 10.1059 8.03592C10.6076 8.45813 10.669 8.5918 10.4103 8.64751C9.46924 8.85018 9.22496 8.08496 9.22496 7.77294C9.22496 7.64566 9.26947 7.58437 9.355 7.58212ZM15.4853 12.6257C14.8488 12.6143 14.2379 12.8216 13.3975 13.243C12.6806 13.6024 11.6591 14.009 11.1275 14.1465L10.1612 14.3964L10.1758 16.2703C10.2016 19.5609 11.6385 22.7203 13.9846 24.645C15.1713 25.6184 15.5346 25.7036 16.3046 25.1877C18.0193 24.0387 19.6002 21.8514 20.269 19.7021C20.7101 18.2846 21.1414 15.07 20.9557 14.5844C20.8978 14.4328 20.4896 14.2507 20.0487 14.1799C19.6078 14.1092 18.563 13.7225 17.7268 13.3204C16.7841 12.8671 16.1219 12.6371 15.4853 12.6257ZM15.4601 13.8419C15.8126 13.8419 16.7519 14.1707 17.5472 14.5726C18.3425 14.9744 19.1838 15.3032 19.4169 15.3032C19.7959 15.3032 19.828 15.3969 19.7188 16.1904C19.2451 19.6318 18.459 21.5133 16.7999 23.178C16.196 23.7839 15.6085 24.2797 15.4943 24.2797C15.0352 24.2797 13.1774 22.1788 12.5713 20.9742C11.845 19.5305 11.3134 17.516 11.3088 16.1904C11.3063 15.4654 11.3759 15.3032 11.6903 15.3032C11.902 15.3032 12.6927 14.9744 13.4474 14.5726C14.2022 14.1707 15.1077 13.8419 15.4601 13.8419Z" fill="#007AFF"/>
</svg>
