<svg width="24" height="24" viewBox="0 0 24 24" fill="none" xmlns="http://www.w3.org/2000/svg">
<path d="M9.65248 0.5C9.44931 0.50002 9.25448 0.580703 9.11082 0.724303C8.96717 0.867903 8.88645 1.06266 8.88643 1.26574V3.1927L6.25679 4.79768L4.59518 3.77982C4.50796 3.72639 4.41091 3.69097 4.30977 3.67563C4.20863 3.6603 4.10544 3.66536 4.0063 3.69053C3.90715 3.7157 3.81404 3.76047 3.73248 3.82219C3.65092 3.88391 3.58254 3.96133 3.5314 4.04988L1.10267 8.25505C1.0011 8.43094 0.973582 8.63996 1.02617 8.83613C1.07876 9.0323 1.20715 9.19955 1.3831 9.3011L3.08147 10.2814V13.5281L1.35659 14.6188C1.1897 14.7243 1.07002 14.8901 1.02251 15.0817C0.974995 15.2733 1.00333 15.4759 1.1016 15.6471L3.47283 19.7762C3.5233 19.864 3.59068 19.9409 3.67109 20.0025C3.75149 20.0641 3.84332 20.1092 3.94126 20.1351C4.0392 20.161 4.1413 20.1672 4.24166 20.1534C4.34202 20.1396 4.43864 20.106 4.52593 20.0546L6.71291 18.7669C6.88796 18.6638 7.01488 18.4955 7.06574 18.2988C7.11661 18.1022 7.08726 17.8935 6.98415 17.7185C6.88103 17.5435 6.7126 17.4166 6.51591 17.3658C6.31922 17.3149 6.11038 17.3443 5.93533 17.4474L4.41585 18.3421L2.7957 15.5208L4.25704 14.597C4.36625 14.5279 4.4562 14.4324 4.51853 14.3192C4.58087 14.2061 4.61356 14.079 4.61356 13.9498V9.8393C4.61356 9.70488 4.57816 9.57283 4.51093 9.45642C4.44369 9.34001 4.34699 9.24333 4.23054 9.17612L2.81259 8.3576L4.46501 5.49654L5.8556 6.34839C5.9759 6.42209 6.11422 6.46115 6.25531 6.46126C6.3964 6.46138 6.53479 6.42255 6.6552 6.34904L10.0517 4.27593C10.1638 4.20753 10.2563 4.1115 10.3206 3.99705C10.3848 3.88261 10.4185 3.75358 10.4185 3.62236V2.03148H13.5874V3.62236C13.5874 3.82545 13.6681 4.02022 13.8118 4.16382C13.9555 4.30742 14.1503 4.3881 14.3535 4.3881C14.5566 4.3881 14.7515 4.30742 14.8951 4.16382C15.0388 4.02022 15.1195 3.82545 15.1195 3.62236V1.26574C15.1195 1.06266 15.0388 0.867903 14.8951 0.724303C14.7515 0.580703 14.5566 0.50002 14.3535 0.5H9.65248ZM19.7861 3.75953C19.6851 3.77236 19.5876 3.80519 19.4995 3.8561L17.3059 5.12222C17.2187 5.1725 17.1424 5.23944 17.0811 5.31922C17.0199 5.399 16.9749 5.49005 16.9489 5.58719C16.9229 5.68433 16.9162 5.78564 16.9293 5.88534C16.9425 5.98504 16.9751 6.08119 17.0254 6.16828C17.0757 6.25537 17.1427 6.33171 17.2225 6.39293C17.3023 6.45415 17.3934 6.49906 17.4906 6.52509C17.5878 6.55112 17.6891 6.55776 17.7889 6.54464C17.8886 6.53151 17.9848 6.49888 18.0719 6.44859L19.5895 5.57261L21.1431 8.38367L19.7461 9.19C19.6297 9.2572 19.533 9.35384 19.4658 9.47021C19.3986 9.58659 19.3631 9.71859 19.3631 9.85298V14.0481C19.3631 14.1816 19.398 14.3129 19.4644 14.4288C19.5308 14.5446 19.6264 14.6412 19.7416 14.7087L21.1897 15.5574L19.5724 18.3524L18.2264 17.5775C18.1083 17.5095 17.9742 17.4742 17.8379 17.4753C17.7016 17.4763 17.568 17.5138 17.451 17.5837L13.9162 19.6963C13.8003 19.7656 13.7048 19.8642 13.6393 19.9822C13.5739 20.1003 13.5408 20.2335 13.5434 20.3684L13.5746 21.9685H10.4294V20.3535C10.4294 20.2529 10.4096 20.1534 10.3711 20.0605C10.3326 19.9676 10.2762 19.8831 10.2051 19.812C10.1339 19.7409 10.0495 19.6845 9.95653 19.646C9.86359 19.6076 9.76398 19.5878 9.66338 19.5878C9.46021 19.5878 9.26536 19.6684 9.1217 19.812C8.97804 19.9556 8.89733 20.1504 8.89733 20.3535V22.7343C8.89735 22.9373 8.97807 23.1321 9.12172 23.2757C9.26538 23.4193 9.46022 23.5 9.66338 23.5H14.3556C14.4575 23.5 14.5583 23.4797 14.6522 23.4403C14.7462 23.4009 14.8313 23.3431 14.9026 23.2704C14.9739 23.1977 15.0301 23.1116 15.0677 23.0169C15.1053 22.9223 15.1236 22.8211 15.1217 22.7193L15.0838 20.7827L17.8513 19.1288L19.4702 20.0612C19.6461 20.1625 19.855 20.1898 20.051 20.1373C20.247 20.0847 20.4142 19.9565 20.5158 19.7809L22.8971 15.665C22.9984 15.4899 23.0263 15.2819 22.9747 15.0863C22.923 14.8907 22.7961 14.7235 22.6216 14.6211L20.8952 13.6095V10.2952L22.56 9.33422C22.7338 9.23395 22.8613 9.06951 22.9151 8.87626C22.9689 8.68301 22.9447 8.47637 22.8477 8.30077L20.5532 4.14902C20.504 4.05993 20.4375 3.98155 20.3576 3.91845C20.2777 3.85535 20.186 3.8088 20.0879 3.78153C19.9898 3.75421 19.8872 3.74673 19.7861 3.75953ZM11.9996 7.21925C9.40931 7.21925 7.29386 9.33618 7.29386 11.9265C7.29386 14.5168 9.40931 16.6338 11.9996 16.6338C14.5898 16.6338 16.7055 14.5168 16.7055 11.9265C16.7055 9.33618 14.5898 7.21925 11.9996 7.21925ZM11.9996 8.75073C13.7611 8.75073 15.1734 10.1632 15.1734 11.9265C15.1734 13.6898 13.7611 15.1023 11.9996 15.1023C10.238 15.1023 8.82595 13.6898 8.82595 11.9265C8.82595 10.1632 10.238 8.75073 11.9996 8.75073Z" fill="#007AFF"/>
</svg>
