<svg width="24" height="24" viewBox="0 0 24 24" fill="none" xmlns="http://www.w3.org/2000/svg">
<path d="M12 0C8.81747 0 5.76511 1.26433 3.51472 3.51472C1.26434 5.7651 0 8.81745 0 12C0 13.5502 0.302164 15.0687 0.870001 16.4796V15.3038C0.563542 14.2725 0.395992 13.1963 0.386397 12.1017H3.69324C3.69854 13.0066 3.77839 13.8983 3.92049 14.7655L4.17183 14.2915C4.07321 13.575 4.01697 12.8429 4.01253 12.1017H7.81188C7.81444 12.9766 7.85226 13.8383 7.91867 14.6782C7.60104 14.7086 7.29021 14.7428 6.98598 14.7801V14.9501C7.29452 14.9121 7.61048 14.8775 7.93317 14.8467C8.0061 15.7112 8.11281 16.5469 8.24859 17.3426V15.663C8.21763 15.385 8.18291 15.1108 8.15888 14.8263C8.18832 14.8237 8.21906 14.8219 8.24859 14.8193V14.6497C8.21424 14.6527 8.17854 14.6548 8.14433 14.6579C8.07839 13.8247 8.04076 12.9697 8.03818 12.1017H11.822V14.4917C11.6423 14.4924 11.4647 14.4965 11.2862 14.4993L11.3577 14.6671C11.5125 14.665 11.6663 14.6612 11.822 14.6606V15.7582L12.0002 16.1771L12.178 15.7616V14.6606C12.3351 14.6612 12.4903 14.665 12.6465 14.6672L12.7183 14.4994C12.5383 14.4965 12.3592 14.4924 12.178 14.4917V12.1017H15.9618C15.9592 12.9697 15.9216 13.8247 15.8557 14.6579C15.8227 14.6549 15.7882 14.6529 15.7551 14.65V14.8196C15.7834 14.8221 15.8129 14.8238 15.8411 14.8263C15.8181 15.0991 15.7845 15.3618 15.7551 15.6287V17.3207C15.8891 16.5315 15.9946 15.7033 16.0668 14.8467C16.3477 14.8735 16.6211 14.9044 16.8914 14.9367C16.9118 14.8809 16.9363 14.828 16.9593 14.7741C16.6721 14.7394 16.3803 14.7068 16.0813 14.6782C16.1477 13.8383 16.1856 12.9766 16.1881 12.1017H19.9875C19.9859 12.3701 19.9778 12.6374 19.9636 12.9032C20.0212 12.9013 20.0771 12.8967 20.1359 12.8967C20.1862 12.8967 20.2338 12.9009 20.2831 12.9023C20.297 12.6366 20.3052 12.3697 20.3068 12.1017H23.6137C23.6059 12.9898 23.4928 13.8656 23.2881 14.7156C23.3824 14.9247 23.4561 15.1488 23.5099 15.3869C23.8308 14.2964 24 13.1571 24 12C24 8.81745 22.7357 5.7651 20.4853 3.51472C18.2349 1.26433 15.1825 0 12 0ZM11.822 0.388283V4.01382C10.866 4.00774 9.96369 3.95316 9.15053 3.8576C9.17509 3.7821 9.19905 3.70519 9.22434 3.63144C9.60363 2.52554 10.0502 1.66614 10.5271 1.09014C10.7889 0.77395 11.0574 0.547798 11.3286 0.405221C11.4926 0.395731 11.6571 0.390812 11.822 0.388283ZM12.178 0.388283C15.1944 0.434546 18.0774 1.6497 20.2139 3.78612C22.3683 5.94058 23.587 8.85423 23.6137 11.8982H16.1242C16.1094 11.891 16.0932 11.8871 16.0767 11.8868C16.067 11.8894 16.0578 11.8932 16.0491 11.8982H12.178V0.388283ZM10.8666 0.439594C10.6901 0.578661 10.5181 0.746098 10.3527 0.945798C9.84975 1.55329 9.39556 2.43472 9.01031 3.55803C8.97994 3.64656 8.95104 3.73841 8.92174 3.82934C8.2652 3.74418 7.67092 3.63218 7.16108 3.49688C6.97634 3.44786 6.80409 3.39545 6.64231 3.34067C7.8293 1.77019 9.29945 0.76966 10.8594 0.44014C10.8618 0.439912 10.8642 0.439828 10.8666 0.439594ZM9.11049 0.75029C8.08462 1.29922 7.13858 2.1382 6.33091 3.22672C6.09256 3.131 5.88813 3.02858 5.72268 2.92084C5.5222 2.7903 5.382 2.65413 5.30092 2.51428C6.45559 1.69885 7.74623 1.10073 9.11049 0.75029ZM12.9003 2.31768C12.8634 2.31736 12.8278 2.31914 12.7933 2.32314C12.6555 2.33915 12.5342 2.39344 12.4487 2.49426C12.3632 2.59509 12.3226 2.73189 12.318 2.88384C12.3134 3.03579 12.3424 3.20627 12.3986 3.396C12.5109 3.77545 12.7337 4.2331 13.0483 4.74796C13.1164 4.85954 13.1908 4.97491 13.2675 5.09149C12.6911 5.34741 12.3651 5.76794 12.4304 6.34888C12.5127 7.08206 13.1934 7.86484 14.1753 8.54253C14.2685 8.60689 14.3673 8.66956 14.4662 8.73218C14.3923 9.03216 14.3599 9.31556 14.3696 9.57421C14.396 10.2788 14.7369 10.8088 15.406 10.968C16.0752 11.1273 16.9233 10.8801 17.7386 10.3758C17.828 10.3205 17.9169 10.2615 18.0055 10.2002C18.4693 10.5712 18.9109 10.8902 19.3124 11.1414C19.8031 11.4485 20.2352 11.6592 20.5882 11.7547C20.7647 11.8025 20.9218 11.8219 21.0596 11.8059C21.1974 11.7899 21.3188 11.7356 21.4043 11.6347C21.4897 11.5339 21.5303 11.3972 21.5349 11.2453C21.5395 11.0933 21.5105 10.9227 21.4544 10.733C21.4199 10.6165 21.3715 10.4902 21.3167 10.3596C21.3431 10.3538 21.3701 10.3486 21.3959 10.3423C22.2777 10.1292 22.8168 9.65038 22.7345 8.9172C22.6521 8.18402 21.9713 7.40124 20.9895 6.72355C20.8963 6.65921 20.7975 6.59656 20.6987 6.53396C20.7725 6.23396 20.8049 5.95053 20.7952 5.69187C20.7688 4.98726 20.428 4.45725 19.7588 4.29804C19.0896 4.13883 18.2416 4.38598 17.4262 4.89032C17.3359 4.94616 17.246 5.00573 17.1565 5.0678C16.2144 4.18436 15.3066 3.46701 14.5406 2.9877C14.0499 2.68064 13.6178 2.46983 13.2647 2.3743C13.1324 2.33848 13.0109 2.31862 12.9003 2.31768ZM12.8999 2.53231C12.9904 2.53329 13.0978 2.54965 13.2191 2.58248C13.5426 2.67002 13.9635 2.87284 14.4445 3.17382C15.1246 3.59935 15.9271 4.2233 16.7668 4.98773C15.5808 4.74961 14.5377 4.73793 13.7689 4.92375C13.6595 4.95021 13.5553 4.98082 13.457 5.01545C13.3693 4.88344 13.287 4.75455 13.2105 4.6294C12.9022 4.12472 12.6874 3.67875 12.5845 3.33103C12.533 3.15717 12.5099 3.00822 12.5135 2.89233C12.517 2.77644 12.5447 2.69705 12.5923 2.64089C12.6399 2.58473 12.7101 2.54864 12.8152 2.53643C12.8415 2.53338 12.8698 2.53198 12.8999 2.53231ZM5.20272 2.58337C5.29699 2.74083 5.45249 2.88713 5.65766 3.02073C5.8249 3.12963 6.02719 3.23134 6.25909 3.32601C6.20816 3.39633 6.15617 3.4648 6.1064 3.53712C5.13834 4.94372 4.4379 6.6573 4.04815 8.5175C3.21952 8.30371 2.56417 8.05998 2.10603 7.80183C1.75971 7.60668 1.53477 7.4065 1.42041 7.21083C1.99192 5.94828 2.78724 4.78501 3.78613 3.78612C4.22777 3.34448 4.70271 2.9443 5.20272 2.58337ZM6.56919 3.4418C6.74372 3.50186 6.93019 3.55891 7.13053 3.61207C7.64077 3.74747 8.23229 3.85941 8.88404 3.94477C8.41739 5.4321 8.09566 7.22694 7.93318 9.15334C6.62805 9.0286 5.42893 8.84417 4.41493 8.6075C4.3958 8.60304 4.37811 8.59833 4.35914 8.59384C4.74115 6.76636 5.42749 5.08674 6.36941 3.71812C6.43463 3.62335 6.50206 3.53288 6.56919 3.4418ZM9.11278 3.97333C9.93734 4.07125 10.8522 4.12692 11.822 4.13303V9.33941C10.5573 9.3345 9.31899 9.27749 8.15888 9.17366C8.32198 7.24264 8.64616 5.44761 9.11278 3.97333ZM19.3044 4.42525C19.4247 4.42714 19.5398 4.44076 19.6488 4.46667C20.2296 4.60488 20.5457 5.07181 20.5707 5.73862C20.5785 5.94722 20.5573 6.17465 20.5069 6.41574C19.6158 5.88071 18.5298 5.42239 17.3692 5.12582C17.4253 5.08832 17.4815 5.05174 17.5377 5.01699C18.1646 4.6292 18.783 4.41705 19.3044 4.42525ZM14.9849 5.03939C15.5561 5.03335 16.2077 5.10099 16.9088 5.24846C16.2807 5.72864 15.6888 6.35445 15.221 7.07126C15.1968 7.10834 15.1739 7.14528 15.1508 7.18227C14.5492 6.50504 14.0307 5.84603 13.6135 5.24284C13.7007 5.21287 13.7926 5.18567 13.8905 5.16203C14.2067 5.08559 14.5752 5.04372 14.9849 5.03939ZM17.1112 5.30771C17.3476 5.53125 17.5854 5.76221 17.824 6.0058C18.5488 6.74558 19.1916 7.48802 19.7252 8.18206C19.2559 8.89201 18.6615 9.50708 18.0442 9.96532C17.403 9.44688 16.7179 8.82637 16.0289 8.1232C15.7694 7.85828 15.5224 7.59332 15.2847 7.3299C15.327 7.2594 15.3706 7.18875 15.4169 7.11785C15.8872 6.39713 16.4874 5.77255 17.1112 5.30771ZM13.4211 5.31834C13.8571 5.95476 14.4039 6.65052 15.0405 7.36447C14.8062 7.76596 14.6331 8.1592 14.5214 8.53056C14.4287 8.47178 14.3359 8.41304 14.2488 8.35293C13.3098 7.70486 12.7279 7.00284 12.6609 6.40635C12.6077 5.93274 12.8835 5.5558 13.4211 5.31834ZM17.4958 5.39002C18.5959 5.68156 19.6231 6.11947 20.4572 6.62044C20.3411 7.05264 20.1366 7.5217 19.8409 8.00126C19.3081 7.31188 18.6723 6.57961 17.9567 5.84923C17.8028 5.69214 17.6491 5.53903 17.4958 5.39002ZM17.5824 6.70542C17.3364 6.70543 17.1004 6.80316 16.9265 6.97712C16.7525 7.15108 16.6548 7.38702 16.6548 7.63304C16.6548 7.87906 16.7525 8.115 16.9265 8.28897C17.1004 8.46293 17.3364 8.56066 17.5824 8.56066C17.8284 8.56066 18.0644 8.46293 18.2383 8.28897C18.4123 8.115 18.51 7.87906 18.51 7.63304C18.51 7.38702 18.4123 7.15108 18.2383 6.97712C18.0644 6.80316 17.8284 6.70543 17.5824 6.70542ZM20.6434 6.73553C20.7361 6.79431 20.8289 6.85309 20.916 6.9132C21.855 7.56127 22.437 8.26329 22.5039 8.85978C22.5709 9.45627 22.1176 9.90027 21.2744 10.1041C21.2535 10.1092 21.2313 10.1134 21.2099 10.1181C21.1 9.8889 20.9645 9.64258 20.8047 9.38109C20.5727 9.0014 20.2899 8.59068 19.965 8.16135C20.2817 7.67014 20.5077 7.18667 20.6434 6.73553ZM1.33781 7.3972C1.48397 7.59254 1.71713 7.77658 2.02313 7.949C2.5034 8.21962 3.1739 8.46719 4.01621 8.68365C3.81012 9.7208 3.69966 10.8011 3.69324 11.8982H0.386397C0.400102 10.3348 0.729384 8.80664 1.33781 7.3972ZM15.1778 7.51502C15.408 7.76911 15.646 8.02443 15.8962 8.27977C16.4683 8.8637 17.0378 9.39107 17.5834 9.85272C16.5157 9.56132 15.52 9.13357 14.7076 8.64565C14.8034 8.28896 14.9599 7.90717 15.1778 7.51502ZM19.846 8.34027C20.1537 8.74916 20.4227 9.13998 20.6424 9.49965C20.7853 9.73346 20.9057 9.95294 21.0065 10.1576C20.2765 10.2799 19.3244 10.2424 18.256 10.0177C18.8412 9.57029 19.3948 8.99639 19.846 8.34027ZM4.3274 8.75989C4.34413 8.76385 4.35973 8.76803 4.37658 8.77196C5.40062 9.01098 6.60719 9.1965 7.91867 9.32178C7.85227 10.1617 7.81444 11.0234 7.81188 11.8982H4.01253C4.01895 10.8267 4.12698 9.77189 4.3274 8.75989ZM14.6579 8.8504C15.5491 9.38541 16.6351 9.84375 17.7957 10.1403C17.7395 10.1778 17.6834 10.2144 17.6272 10.2491C16.8555 10.7264 16.097 10.9377 15.5161 10.7995C14.9352 10.6613 14.6192 10.1943 14.5942 9.52752C14.5863 9.3189 14.6075 9.0915 14.6579 8.8504ZM8.14433 9.34214C9.3097 9.4464 10.5526 9.50341 11.822 9.5083V11.8982H8.03818C8.04076 11.0302 8.0784 10.1752 8.14433 9.34214ZM18.4572 10.2896C19.4817 10.4895 20.3965 10.5193 21.1169 10.3982C21.1788 10.5409 21.2327 10.6773 21.2684 10.798C21.3199 10.9719 21.343 11.1208 21.3395 11.2367C21.336 11.3526 21.3083 11.432 21.2607 11.4882C21.213 11.5444 21.1429 11.5804 21.0378 11.5926C20.9327 11.6048 20.7956 11.5903 20.6338 11.5465C20.3103 11.459 19.8895 11.2563 19.4084 10.9553C19.1127 10.7702 18.792 10.5442 18.4572 10.2896ZM20.1359 13.0748C19.1056 13.0748 18.2963 13.3704 17.708 13.9616C17.1225 14.5528 16.8298 15.3693 16.8298 16.4111C16.8298 17.45 17.1225 18.265 17.708 18.8562C18.2963 19.4474 19.1056 19.743 20.1359 19.743C21.1691 19.743 21.9784 19.4474 22.5639 18.8562C23.1494 18.265 23.4421 17.45 23.4421 16.4111C23.4421 15.3693 23.1494 14.5528 22.5639 13.9616C21.9784 13.3704 21.1691 13.0748 20.1359 13.0748ZM1.04802 13.191V19.6182H2.89914L5.23669 15.21V19.6182H6.80796V13.191H4.95689L2.61934 17.5992V13.191H1.04802ZM8.42661 13.191V19.6182H9.99793V14.9172L11.4788 18.3827H12.5292L14.0101 14.9172V19.6182H15.5771V13.191H13.472L11.9997 16.6306L10.536 13.191H8.42661ZM20.1359 14.2758C20.6439 14.2758 21.0371 14.4624 21.3154 14.8355C21.5938 15.2086 21.733 15.7338 21.733 16.4111C21.733 17.0855 21.5938 17.6092 21.3154 17.9823C21.0371 18.3554 20.6439 18.542 20.1359 18.542C19.6308 18.542 19.2391 18.3554 18.9607 17.9823C18.6823 17.6092 18.5431 17.0855 18.5431 16.4111C18.5431 15.7338 18.6823 15.2086 18.9607 14.8355C19.2391 14.4624 19.6308 14.2758 20.1359 14.2758ZM20.1299 14.4541C20.0123 14.4545 19.9039 14.4654 19.8032 14.4865C19.7652 14.74 19.7218 14.9914 19.6726 15.2401C19.6559 15.2361 19.6403 15.232 19.6235 15.228C19.4253 15.1818 19.2148 15.1393 19.0035 15.0972C18.9755 15.1464 18.9495 15.1986 18.9255 15.2533C19.1513 15.2978 19.3745 15.3433 19.5851 15.3925C19.6042 15.397 19.6219 15.4017 19.6409 15.4062C19.4762 16.194 19.2517 16.9519 18.9777 17.6717C19.016 17.7445 19.0571 17.8138 19.1034 17.8759C19.1338 17.9166 19.1655 17.9546 19.1983 17.9901C19.5143 17.1971 19.7687 16.357 19.9519 15.4825C20.5853 15.6459 21.1154 15.827 21.5356 16.0184C21.5291 15.9513 21.5208 15.8865 21.5108 15.8238C21.0919 15.641 20.5837 15.4705 19.9838 15.3164C20.0403 15.0322 20.088 14.7442 20.1299 14.4541ZM3.56067 15.4441C3.28394 15.5254 3.02871 15.6101 2.79736 15.6985V15.8809C2.9982 15.8022 3.21166 15.7249 3.4509 15.6511L3.56067 15.4441ZM4.67481 16.6496L4.464 17.0471C4.63531 17.5814 4.83374 18.0977 5.05867 18.5921V17.7667C4.91756 17.4038 4.78847 17.0318 4.67481 16.6496ZM11.822 18.5607V19.867C10.8522 19.8731 9.93734 19.9287 9.11278 20.0267C9.08909 19.9518 9.06738 19.8727 9.04443 19.7962H8.80785C8.83334 19.8823 8.85762 19.971 8.88404 20.0552C8.23229 20.1406 7.64077 20.2525 7.13053 20.3879C6.93019 20.4411 6.74372 20.4981 6.56919 20.5582C6.50206 20.4671 6.43463 20.3766 6.36941 20.2819C6.26101 20.1244 6.15689 19.9617 6.05533 19.7962H5.68454C5.81957 20.0244 5.95876 20.2484 6.1064 20.4629C6.15617 20.5352 6.20816 20.6037 6.25909 20.674C6.02719 20.7687 5.8249 20.8704 5.65766 20.9793C5.45249 21.1129 5.29699 21.2592 5.20272 21.4166C4.7027 21.0557 4.22778 20.6555 3.78613 20.2138C3.56389 19.9916 3.35339 19.76 3.15152 19.5222L3.0564 19.7016C3.04125 19.7301 3.01861 19.754 2.9909 19.7707C2.9632 19.7874 2.93148 19.7962 2.89914 19.7962H2.8822C3.08428 20.0325 3.29329 20.2638 3.51472 20.4853C5.76511 22.7357 8.81747 24 12 24C15.1825 24 18.2349 22.7357 20.4853 20.4853C20.6988 20.2717 20.9006 20.0488 21.0961 19.8213C20.9077 19.8617 20.7124 19.8923 20.5067 19.9072C20.4106 20.0106 20.314 20.1137 20.2139 20.2138C19.7722 20.6555 19.2973 21.0557 18.7973 21.4166C18.703 21.2592 18.5475 21.1129 18.3423 20.9793C18.1751 20.8704 17.9728 20.7687 17.741 20.674C17.7919 20.6037 17.8439 20.5352 17.8937 20.4629C18.0876 20.1811 18.2677 19.8839 18.4398 19.5787C18.3424 19.5333 18.2485 19.4831 18.1577 19.4286C17.9913 19.7233 17.8175 20.0103 17.6306 20.2819C17.5654 20.3766 17.4979 20.4671 17.4308 20.5582C17.2563 20.4981 17.0698 20.4411 16.8695 20.3879C16.3592 20.2525 15.7677 20.1406 15.116 20.0552C15.1424 19.971 15.1667 19.8823 15.1922 19.7962H14.9556C14.9326 19.8727 14.9109 19.9518 14.8872 20.0267C14.0627 19.9287 13.1478 19.8731 12.178 19.867V18.5607H11.822ZM11.822 19.9862V23.6117C11.6571 23.6092 11.4926 23.6043 11.3286 23.5948C11.0575 23.4522 10.7889 23.2261 10.5271 22.9099C10.0502 22.3339 9.60363 21.4745 9.22434 20.3686C9.19905 20.2948 9.17509 20.2179 9.15053 20.1424C9.96369 20.0468 10.866 19.9923 11.822 19.9862ZM12.178 19.9862C13.134 19.9923 14.0363 20.0468 14.8495 20.1424C14.8249 20.2179 14.8009 20.2948 14.7757 20.3686C14.3964 21.4745 13.9499 22.3339 13.473 22.9099C13.2112 23.2261 12.9425 23.4522 12.6714 23.5948C12.5074 23.6043 12.3429 23.6092 12.178 23.6117V19.9862ZM8.92174 20.1707C8.95104 20.2616 8.97994 20.3534 9.01031 20.442C9.39556 21.5653 9.84975 22.4467 10.3527 23.0542C10.5181 23.2539 10.6901 23.4213 10.8666 23.5604C10.8642 23.5601 10.8618 23.5601 10.8594 23.5599C9.29945 23.2303 7.8293 22.2298 6.64231 20.6593C6.80409 20.6046 6.97634 20.5521 7.16108 20.5031C7.67092 20.3678 8.26521 20.2558 8.92174 20.1707ZM15.0783 20.1707C15.7348 20.2558 16.3291 20.3678 16.8389 20.5031C17.0237 20.5521 17.1959 20.6046 17.3577 20.6593C16.1707 22.2298 14.7005 23.2303 13.1406 23.5599C13.1382 23.5601 13.1358 23.5602 13.1334 23.5604C13.3099 23.4213 13.4819 23.2538 13.6473 23.0541C14.1503 22.4467 14.6044 21.5653 14.9897 20.442C15.0201 20.3534 15.049 20.2616 15.0783 20.1707ZM6.33091 20.7733C7.13858 21.8618 8.08462 22.7008 9.1105 23.2497C7.74625 22.8993 6.45563 22.3011 5.30097 21.4857C5.38206 21.3458 5.52223 21.2096 5.72268 21.0791C5.88814 20.9714 6.09256 20.869 6.33091 20.7733ZM17.6691 20.7733C17.9075 20.869 18.1119 20.9714 18.2773 21.0791C18.4778 21.2096 18.6179 21.3458 18.699 21.4857C17.5444 22.3011 16.2538 22.8992 14.8896 23.2497C15.9155 22.7007 16.8615 21.8618 17.6691 20.7733Z" fill="#007AFF"/>
</svg>
