<svg width="28" height="24" viewBox="0 0 28 24" fill="none" xmlns="http://www.w3.org/2000/svg">
<path d="M13.9716 1C11.1449 1.00002 8.43407 2.15896 6.43535 4.22186C4.43662 6.28476 3.31376 9.08264 3.31376 12C3.32248 13.9169 3.8164 15.7982 4.74657 17.4573L0 20.2857L0.248621 20.7301L4.98494 17.9078C5.94734 19.4679 7.27531 20.7523 8.84606 21.6424C10.4168 22.5324 12.1797 22.9994 13.9716 23C16.6717 22.9919 19.2682 21.9263 21.2365 20.0186C19.536 21.3697 17.4523 22.1066 15.3063 22.1157C13.5541 22.1104 11.8355 21.6198 10.3297 20.6951C8.82397 19.7703 7.58637 18.4453 6.74612 16.8584L12.4604 13.4534L9.49843 16.5105L9.85 16.8733L12.812 13.8164L11.9319 15.3896L12.3625 15.6462L13.2426 14.073L12.1585 18.2489L12.6388 18.3817L13.7229 14.2057V16.0225H14.2202V14.2054L15.3045 18.3817L15.7848 18.2489L14.7006 14.0729L15.5807 15.6462L16.0114 15.3896L15.1314 13.8165L18.0931 16.8733L18.4448 16.5105L15.4827 13.4533L17.0072 14.3618L17.2559 13.9173L15.7316 13.0089L19.7776 14.1279L19.9063 13.6322L15.8601 12.5132H17.6204V12H15.8607L19.9063 10.881L19.7776 10.3853L15.7312 11.5043L21.2361 8.22404C21.8306 9.40797 22.1412 10.7219 22.1419 12.0554C22.1418 14.2658 21.291 16.3858 19.7766 17.9488C18.2622 19.5119 16.2082 20.39 14.0664 20.39C12.7066 20.3826 11.3707 20.0209 10.1825 19.3385C11.7494 20.6039 13.6797 21.2951 15.6693 21.3031C18.0457 21.3031 20.3247 20.3288 22.0051 18.5945C23.6855 16.8602 24.6295 14.508 24.6295 12.0554C24.6295 10.2807 24.1348 8.54355 23.2043 7.05118L28 4.19359L27.7514 3.74922L22.9217 6.62719C22.091 5.44461 21.0007 4.48193 19.7402 3.818C18.4796 3.15407 17.0845 2.80777 15.6693 2.80746C13.6797 2.81545 11.7494 3.50664 10.1825 4.77206C11.3707 4.08967 12.7066 3.728 14.0664 3.7206C15.4624 3.72064 16.8345 4.09417 18.0489 4.80476C19.2633 5.51534 20.2785 6.5387 20.9954 7.77499L15.4826 11.06L18.4448 8.00274L18.0931 7.63978L15.1313 10.6968L16.0114 9.12348L15.5807 8.86688L14.7006 10.4401L15.7848 6.26423L15.3045 6.13147L14.2202 10.3077V8.49066H13.7229V10.3074L12.6388 6.13147L12.1585 6.26423L13.2426 10.4402L12.3625 8.86688L11.9319 9.12348L12.8121 10.6969L9.85 7.63978L9.49843 8.00274L12.4604 11.0598L10.936 10.1514L10.6874 10.5958L12.2119 11.5043L8.16566 10.3853L8.03692 10.881L12.0831 12H10.3229V12.5132H12.0837L8.03692 13.6322L8.16566 14.1279L12.2119 13.0089L6.50775 16.4079C5.86143 15.039 5.52334 13.5369 5.51877 12.0141C5.51877 10.6876 5.77193 9.37401 6.26381 8.14842C6.75568 6.92284 7.47662 5.80925 8.38548 4.87123C9.29433 3.93321 10.3733 3.18914 11.5608 2.68149C12.7483 2.17385 14.021 1.91257 15.3063 1.91258C17.5124 1.91359 19.6534 2.68379 21.3822 4.09826C19.3951 2.11209 16.7377 1.00107 13.9716 1Z" fill="#007AFF"/>
</svg>
