<svg width="24" height="24" viewBox="0 0 24 24" fill="none" xmlns="http://www.w3.org/2000/svg">
<path fill-rule="evenodd" clip-rule="evenodd" d="M8.8654 2.10173C8.52426 2.1133 8.18036 2.19141 7.85368 2.34391C5.42606 3.47592 3.47594 5.42604 2.34391 7.85368C1.73393 9.16042 2.30868 10.7377 3.61539 11.3478C4.92217 11.9562 6.49825 11.3847 7.10758 10.0783C7.71772 8.76987 8.76987 7.71774 10.0783 7.10758C11.3847 6.49827 11.9563 4.92218 11.3478 3.6154C10.8903 2.63536 9.8888 2.06699 8.8654 2.10173ZM14.9377 2.10173C13.9827 2.13915 13.0756 2.69662 12.6466 3.6154C12.0381 4.92215 12.6117 6.49824 13.9181 7.10758C15.2265 7.71769 16.2768 8.76982 16.8869 10.0783L16.8928 10.0822C17.5021 11.3886 19.0743 11.9563 20.3811 11.3478L20.385 11.3537C21.6917 10.7436 22.2606 9.16042 21.6506 7.85371C20.5185 5.42604 18.5684 3.47594 16.1408 2.34391C15.8141 2.19142 15.4702 2.1133 15.1291 2.10173C15.0651 2.09956 15.0013 2.09924 14.9377 2.10173ZM14.967 3.72477C15.1275 3.71616 15.2942 3.74817 15.4533 3.82243C17.5342 4.79279 19.2076 6.46615 20.1779 8.54704C20.4155 9.05611 20.2064 9.63754 19.6974 9.87516C19.1884 10.1122 18.6008 9.89769 18.3634 9.38883C17.5916 7.73355 16.2609 6.40285 14.6056 5.63102C14.0968 5.39368 13.8882 4.81186 14.1252 4.3029C14.2885 3.95297 14.6138 3.74372 14.967 3.72477ZM8.92985 3.72672C9.31852 3.71062 9.69157 3.92474 9.87126 4.30289C10.1082 4.81191 9.89771 5.39367 9.38884 5.63102C7.73361 6.40286 6.40289 7.73357 5.63102 9.38883C5.39367 9.8977 4.8119 10.1083 4.3029 9.87125C3.7987 9.63167 3.58579 9.04999 3.82243 8.54313C4.7928 6.46217 6.46222 4.79275 8.54313 3.82243C8.66984 3.76328 8.80029 3.73209 8.92985 3.72672ZM4.62711 12.4064C4.28593 12.4179 3.94209 12.4945 3.61539 12.6466C2.30869 13.2566 1.73392 14.8341 2.34391 16.1408C3.47592 18.5684 5.42606 20.5186 7.85368 21.6506C9.16039 22.2606 10.7436 21.6916 11.3537 20.3849C11.3521 20.3833 11.3494 20.3827 11.3478 20.381C11.9562 19.0742 11.3886 17.5001 10.0822 16.8908C8.77382 16.2807 7.71772 15.2266 7.10758 13.9181C6.65059 12.9384 5.65068 12.372 4.62711 12.4064ZM19.1779 12.4064C18.2242 12.4453 17.3192 13.0035 16.8908 13.922C16.2807 15.2305 15.2304 16.2807 13.922 16.8908C12.6156 17.5001 12.0381 19.0742 12.6466 20.381L12.6525 20.3849C13.2626 21.6916 14.84 22.2664 16.1467 21.6564C18.5744 20.5244 20.5245 18.5743 21.6565 16.1466C22.2665 14.8399 21.6917 13.2625 20.385 12.6525L20.3811 12.6466C20.0544 12.4945 19.7101 12.4174 19.3693 12.4064C19.3055 12.4043 19.2415 12.4038 19.1779 12.4064ZM4.69157 14.0275C5.08107 14.0103 5.453 14.224 5.63102 14.6056C6.40287 16.2608 7.73358 17.5915 9.38883 18.3634C9.89768 18.6007 10.1121 19.1884 9.87516 19.6974C9.63754 20.2064 9.05606 20.4155 8.54704 20.1779C6.46612 19.2076 4.79277 17.5343 3.82243 15.4533C3.58488 14.9443 3.79391 14.3628 4.3029 14.1252C4.43015 14.0659 4.56173 14.0333 4.69157 14.0275ZM19.2072 14.0295C19.3671 14.0202 19.5345 14.0511 19.6935 14.1252C20.2026 14.3627 20.4155 14.9482 20.1779 15.4572C19.2076 17.5381 17.5381 19.2076 15.4572 20.1779C14.9482 20.4155 14.3628 20.2026 14.1252 19.6936C13.8882 19.1845 14.1027 18.6066 14.6115 18.3693C16.2668 17.5974 17.5975 16.2667 18.3693 14.6115C18.5325 14.2617 18.8554 14.0499 19.2072 14.0295Z" fill="#007AFF"/>
</svg>
