<?xml version="1.0" encoding="UTF-8" standalone="no"?>
<svg
   width="22.003363"
   height="22.00363"
   viewBox="0 0 22.003363 22.00363"
   fill="none"
   version="1.1"
   id="svg4"
   xmlns="http://www.w3.org/2000/svg"
   xmlns:svg="http://www.w3.org/2000/svg">
  <defs
     id="defs4" />
  <path
     id="path8"
     style="baseline-shift:baseline;display:inline;overflow:visible;vector-effect:none;fill:#007aff;enable-background:accumulate;stop-color:#000000;stop-opacity:1"
     d="M 7.5173026,0.00194512 C 7.1382045,0.01481212 6.7573007,0.10199992 6.3942557,0.27147642 3.6964658,1.5294664 1.5292289,3.6967033 0.27120893,6.3945232 -0.40665212,7.8466934 0.23117813,9.599436 1.6833183,10.277336 3.1355382,10.953536 4.8889807,10.317046 5.5661307,8.8652264 6.2441708,7.4111664 7.4108689,6.2444582 8.8649589,5.5663982 10.316689,4.8892783 10.953269,3.1357956 10.277069,1.6835858 9.7686435,0.59447312 8.654597,-0.03665584 7.5173026,0.00194512 Z m 6.7500004,0 c -1.061346,0.041532 -2.070156,0.6606117 -2.546875,1.68164068 -0.6762,1.4521798 -0.03969,3.2056624 1.412109,3.8828124 1.454101,0.6780101 2.620829,1.8447282 3.298829,3.2988282 0.0018,0.00183 0.004,0.00405 0.0059,0.00586 0.6771,1.4517706 2.424753,2.0824506 3.876953,1.4062506 0.0018,0.0019 0.0041,0.0041 0.0059,0.0059 1.452201,-0.6780004 2.08415,-2.4365321 1.40625,-3.8886722 -1.257999,-2.69777 -3.425346,-4.8650268 -6.123046,-6.12304678 -0.36305,-0.1694653 -0.74395,-0.2566689 -1.123047,-0.2695313 -0.07108,-0.002411993 -0.142134,-0.002768993 -0.212891,0 z M 7.5895683,1.8066326 c 0.4319296,-0.017888 0.8452343,0.2203925 1.0449218,0.640625 0.26337,0.56567 0.030344,1.2128025 -0.5351562,1.4765625 -1.83945,0.85775 -3.3180013,2.3363013 -4.1757813,4.1757813 -0.26376,0.5655 -0.9109125,0.7985162 -1.4765625,0.5351562 C 1.8866701,8.3685176 1.6488639,7.7234183 1.9118339,7.1601482 2.9902039,4.8475883 4.8473806,2.9904214 7.1598807,1.9121014 7.3006882,1.8463744 7.4455917,1.8125954 7.5895683,1.8066326 Z m 6.7089847,0 c 0.178385,-0.00957 0.362313,0.022953 0.539063,0.1054688 2.3125,1.07836 4.173653,2.9394731 5.251953,5.2519531 0.264,0.56572 0.03054,1.2124925 -0.535156,1.4765625 -0.5656,0.26341 -1.216769,0.024474 -1.480469,-0.5410156 -0.8577,-1.83951 -2.336283,-3.3180513 -4.175781,-4.1757813 -0.565501,-0.26375 -0.798457,-0.9109625 -0.535157,-1.4765625 0.181569,-0.3888775 0.5431,-0.6195653 0.935547,-0.640625 z M 2.8063651,11.453117 c -0.3791608,0.01275 -0.7599893,0.09853 -1.1230468,0.267578 -1.45212007,0.678 -2.08998842,2.430613 -1.41210937,3.882813 1.25798997,2.6978 3.42524677,4.865046 6.12304677,6.123046 1.4521402,0.677801 3.2107718,0.04585 3.8886723,-1.40625 l -0.0059,-0.0059 c 0.6762,-1.4522 0.04546,-3.199753 -1.4062507,-3.876953 -1.45407,-0.678 -2.6266475,-1.850687 -3.3046876,-3.304688 -0.507855,-1.08885 -1.6222832,-1.717946 -2.7597656,-1.679687 z m 16.1718759,0 c -1.05984,0.04331 -2.06493,0.66482 -2.541016,1.685547 -0.678,1.4541 -1.844728,2.620828 -3.298828,3.298828 -1.4518,0.6772 -2.094169,2.424753 -1.417969,3.876953 0.0018,0.0019 0.0041,0.0041 0.0059,0.0059 0.6779,1.452101 2.430713,2.09001 3.882813,1.41211 2.6978,-1.2579 4.865047,-3.425147 6.123047,-6.123047 0.6779,-1.4521 0.03999,-3.204912 -1.41211,-3.882813 -0.0018,-0.0018 -0.004,-0.0041 -0.0059,-0.0059 -0.36305,-0.16905 -0.744386,-0.25533 -1.123047,-0.267578 -0.071,-0.0023 -0.142234,-0.0029 -0.21289,0 z M 2.8805839,13.255851 c 0.4328503,-0.01913 0.8451337,0.218528 1.0429687,0.642579 0.85775,1.839499 2.3363113,3.317981 4.1757813,4.175781 0.56549,0.2637 0.8043656,0.914868 0.5410156,1.480469 -0.26407,0.565701 -0.9108825,0.799256 -1.4765625,0.535156 -2.31251,-1.0783 -4.1736231,-2.939453 -5.2519531,-5.251953 -0.26398,-0.5657 -0.030474,-1.21051 0.5351562,-1.47461 0.141415,-0.06583 0.2893103,-0.101045 0.4335938,-0.107422 z m 16.2382821,0 c 0.143786,0.0059 0.290215,0.04157 0.43164,0.107422 0.5657,0.264 0.803063,0.914869 0.539063,1.480469 -1.0783,2.3125 -2.933594,4.167794 -5.246094,5.246094 -0.5657,0.2641 -1.216369,0.02654 -1.480469,-0.539063 -0.2634,-0.5657 -0.02644,-1.206903 0.539063,-1.470703 1.8394,-0.8577 3.320034,-2.338334 4.177734,-4.177734 0.19785,-0.424125 0.607705,-0.664133 1.039063,-0.646485 z" />
</svg>
