<svg width="24" height="24" viewBox="0 0 24 24" fill="none" xmlns="http://www.w3.org/2000/svg">
<path fill-rule="evenodd" clip-rule="evenodd" d="M2.5 12.0695C2.49672 11.5741 2.89568 11.1698 3.39112 11.1665L11.1088 11.1087L11.1666 3.39114C11.1699 2.8957 11.5742 2.49674 12.0696 2.50002C12.565 2.5033 12.964 2.90759 12.9607 3.40303L12.9031 11.0968L20.597 11.0393C21.0924 11.036 21.4967 11.435 21.5 11.9304C21.5033 12.4259 21.1043 12.8302 20.6089 12.8334L12.8912 12.8911L12.8334 20.6089C12.8301 21.1043 12.4259 21.5033 11.9304 21.5C11.435 21.4967 11.036 21.0924 11.0393 20.597L11.0969 12.903L3.40301 12.9606C2.90757 12.9639 2.50328 12.5649 2.5 12.0695Z" fill="#007AFF"/>
</svg>
