<svg width="24" height="24" viewBox="0 0 24 24" fill="none" xmlns="http://www.w3.org/2000/svg">
<path fill-rule="evenodd" clip-rule="evenodd" d="M1.50002 12.0696C1.49674 11.5742 1.8957 11.1699 2.39114 11.1666L11.1088 11.1088L11.1666 2.39114C11.1699 1.8957 11.5742 1.49674 12.0696 1.50002C12.565 1.5033 12.964 1.90759 12.9607 2.40303L12.9031 11.0969L21.597 11.0393C22.0924 11.036 22.4967 11.435 22.5 11.9304C22.5033 12.4258 22.1043 12.8301 21.6089 12.8334L12.8912 12.8912L12.8334 21.6089C12.8301 22.1043 12.4258 22.5033 11.9304 22.5C11.435 22.4967 11.036 22.0924 11.0393 21.597L11.0969 12.9031L2.40303 12.9607C1.90759 12.964 1.5033 12.565 1.50002 12.0696Z" fill="#007AFF"/>
</svg>
