<svg width="24" height="24" viewBox="0 0 24 24" fill="none" xmlns="http://www.w3.org/2000/svg">
<path fill-rule="evenodd" clip-rule="evenodd" d="M10.8374 1.81487C11.5652 1.43508 12.4348 1.43508 13.1626 1.81487C13.7193 2.10531 14.0525 2.6743 14.3071 3.20507C14.575 3.76362 14.8621 4.52547 15.2159 5.46425L15.5865 6.44755C15.8243 7.07824 15.8734 7.17036 15.9243 7.22909C15.9922 7.30753 16.0787 7.36993 16.1772 7.4104C16.2532 7.44163 16.362 7.45937 17.0408 7.4879L18.1003 7.53242C19.1138 7.575 19.9345 7.60948 20.5535 7.68861C21.1399 7.76357 21.7872 7.89986 22.2386 8.33334C22.8321 8.90335 23.1052 9.72964 22.963 10.5414C22.8545 11.1605 22.4075 11.6505 21.9779 12.0517C21.5238 12.4758 20.8799 12.9808 20.0857 13.6038L19.2546 14.2558C18.7212 14.6742 18.6465 14.7499 18.6056 14.8162C18.5516 14.9036 18.5195 15.0016 18.5114 15.1023C18.5053 15.1771 18.5198 15.2788 18.7027 15.9281L18.9876 16.9391C19.2595 17.904 19.4803 18.6873 19.5957 19.295C19.705 19.8709 19.7752 20.5291 19.4948 21.0931C19.1284 21.8299 18.4206 22.3355 17.6078 22.4509C16.9886 22.5388 16.3848 22.2742 15.8641 21.9932C15.316 21.6974 14.6312 21.2482 13.7862 20.6939L12.9024 20.1142C12.3362 19.7429 12.2385 19.6945 12.1586 19.6757C12.0544 19.6511 11.9456 19.6511 11.8414 19.6757C11.7615 19.6945 11.6638 19.7429 11.0976 20.1142L10.2139 20.6939C9.3688 21.2482 8.68404 21.6974 8.13588 21.9932C7.61517 22.2742 7.01142 22.5388 6.39225 22.4509C5.57939 22.3355 4.87158 21.8299 4.50525 21.0931C4.22481 20.5291 4.29498 19.8709 4.40434 19.295C4.51974 18.6873 4.74047 17.904 5.01239 16.9391L5.29729 15.9281C5.48025 15.2788 5.49467 15.1771 5.48861 15.1023C5.48046 15.0016 5.44842 14.9036 5.3944 14.8162C5.35346 14.7499 5.27876 14.6742 4.74538 14.2558L3.91429 13.6038C3.12008 12.9808 2.47625 12.4758 2.02206 12.0517C1.59248 11.6505 1.1455 11.1605 1.03702 10.5414C0.894791 9.72964 1.16792 8.90335 1.76142 8.33334C2.21277 7.89986 2.8601 7.76357 3.44649 7.68861C4.06552 7.60948 4.88625 7.575 5.89975 7.53242L6.95916 7.4879C7.63801 7.45937 7.74682 7.44163 7.82283 7.4104C7.92131 7.36993 8.00775 7.30753 8.0757 7.22909C8.12657 7.17036 8.17575 7.07824 8.41346 6.44755L8.78405 5.46428C9.13787 4.52548 9.42501 3.76362 9.69292 3.20507C9.94752 2.6743 10.2807 2.10531 10.8374 1.81487Z" fill="#007AFF"/>
</svg>
