<svg width="24" height="24" viewBox="0 0 24 24" fill="none" xmlns="http://www.w3.org/2000/svg">
<path d="M20.2949 4.14125C20.2949 4.14125 22.1451 3.44868 21.9909 5.13064C21.9395 5.82322 21.477 8.24722 21.1172 10.8691L19.8838 18.6358C19.8838 18.6358 19.781 19.7736 18.8559 19.9715C17.9308 20.1694 16.5432 19.2789 16.2862 19.081C16.0807 18.9327 12.4318 16.7065 11.147 15.6182C10.7872 15.3214 10.3761 14.7277 11.1983 14.0351L16.5946 9.08823C17.2113 8.49458 17.8281 7.10944 15.2584 8.7914L8.06339 13.491C8.06339 13.491 7.2411 13.9857 5.69934 13.5405L2.35877 12.5511C2.35877 12.5511 1.12534 11.809 3.23245 11.067C8.37177 8.74189 14.6931 6.36736 20.2949 4.14125Z" fill="#007AFF"/>
</svg>
