<svg width="24" height="24" viewBox="0 0 24 24" fill="none" xmlns="http://www.w3.org/2000/svg">
<path d="M11.995 1.46997C11.4377 1.47016 10.8816 1.53421 10.5302 1.66536L9.05946 2.21419L2.89538 4.5306L2.13366 4.81596C-0.0978781 5.65305 -0.0978781 8.37925 2.13366 9.21634L2.89538 9.50132L5.09461 10.3275C5.09461 10.3275 5.09461 14.2938 5.09461 14.4056C5.09461 14.5175 5.14551 22.5115 12.0204 22.5115C18.8954 22.5115 18.8954 14.5175 18.8954 14.4056C18.8954 14.2938 18.8954 10.3275 18.8954 10.3275L21.0946 9.50132L21.5126 9.34521V11.4839C21.5126 11.4839 20.9344 11.9689 20.9344 12.3784V14.273C20.9344 14.273 20.887 15.0796 22.077 15.0796C23.2671 15.0796 23.2489 14.273 23.2489 14.273V12.3784C23.2489 11.9689 22.6766 11.4839 22.6766 11.4839V8.75148C24.0409 7.63705 23.7683 5.5332 21.8563 4.81596L13.4618 1.66536C13.1109 1.53345 12.5523 1.46997 11.995 1.46997ZM11.995 3.62816C12.5081 3.62816 13.0217 3.70147 13.4149 3.84887L20.4364 6.48363C21.2228 6.77881 21.2228 7.25302 20.4364 7.54809L18.8954 8.12621C18.8954 8.12621 17.0951 6.39963 11.995 6.39963C6.89511 6.39963 5.09461 8.12621 5.09461 8.12621L3.55358 7.54809C2.76718 7.25291 2.76718 6.77873 3.55358 6.48363L10.5751 3.84887C10.9683 3.70147 11.4819 3.62816 11.995 3.62816ZM11.995 8.46803C14.354 8.46803 15.9992 8.86685 17.0946 9.2942V11.5911C16.0358 11.3473 14.4179 11.1302 12.0204 11.1302C9.59625 11.1302 7.96475 11.3516 6.89538 11.5989V9.2942C7.99085 8.86685 9.63611 8.46803 11.995 8.46803ZM12.0203 13.2298C14.6152 13.2298 16.2863 13.4932 17.3348 13.7707L17.3132 13.9015C17.3132 13.9015 17.6214 20.9058 12.0203 20.9058C6.41922 20.9058 6.62574 14.0031 6.62574 14.0031L6.6023 13.7922C7.65745 13.5072 9.3604 13.2298 12.0203 13.2298Z" fill="#007AFF"/>
</svg>
