<svg width="24" height="24" viewBox="0 0 24 24" fill="none" xmlns="http://www.w3.org/2000/svg">
<path d="M12.9 3.75998C12.9 3.28778 12.5172 2.90464 12.045 2.90549C9.36294 2.9103 6.99369 2.96097 5.94845 3.49354C4.93238 4.01126 4.10628 4.83735 3.58856 5.85343C3 7.00855 3 8.5207 3 11.545V12.265C3 15.2893 3 16.8014 3.58856 17.9565C4.10628 18.9726 4.93238 19.7987 5.94845 20.3164C7.10357 20.905 8.61572 20.905 11.64 20.905H12.36C15.3843 20.905 16.8964 20.905 18.0515 20.3164C19.0676 19.7987 19.8937 18.9726 20.4114 17.9565C20.944 16.9113 20.9947 14.542 20.9995 11.86C21.0003 11.3878 20.6172 11.005 20.145 11.005C19.6728 11.005 19.2902 11.3875 19.2896 11.8597C19.2876 13.2988 19.2772 14.9983 19.2221 15.6724C19.1572 16.4672 19.0388 16.8839 18.8878 17.1802C18.534 17.8745 17.9695 18.439 17.2752 18.7928C16.9789 18.9438 16.5622 19.0622 15.7675 19.1271C14.9528 19.1936 13.9004 19.195 12.36 19.195H11.64C10.0996 19.195 9.04722 19.1936 8.23254 19.1271C7.43783 19.0622 7.0211 18.9438 6.72478 18.7928C6.03046 18.439 5.46596 17.8745 5.11219 17.1802C4.9612 16.8839 4.84282 16.4672 4.77789 15.6724C4.71133 14.8578 4.71 13.8053 4.71 12.265V11.545C4.71 10.0046 4.71133 8.95219 4.77789 8.13752C4.84282 7.3428 4.9612 6.92608 5.11219 6.62975C5.46596 5.93544 6.03046 5.37094 6.72478 5.01716C7.0211 4.86618 7.43783 4.7478 8.23254 4.68287C8.90663 4.62779 10.6062 4.61738 12.0453 4.61543C12.5175 4.61478 12.9 4.23218 12.9 3.75998Z" fill="#007AFF"/>
<path fill-rule="evenodd" clip-rule="evenodd" d="M14.923 0H23.068C23.5678 0 23.973 0.405182 23.973 0.905V9.05C23.973 9.54982 23.5678 9.955 23.068 9.955C22.5682 9.955 22.163 9.54982 22.163 9.05V3.08986L12.6399 12.6129C12.2865 12.9663 11.7135 12.9663 11.3601 12.6129C11.0066 12.2595 11.0066 11.6865 11.3601 11.333L20.8831 1.81H14.923C14.4232 1.81 14.018 1.40482 14.018 0.905C14.018 0.405182 14.4232 0 14.923 0Z" fill="#007AFF"/>
</svg>
