<svg width="28" height="28" viewBox="0 0 28 28" fill="none" xmlns="http://www.w3.org/2000/svg">
<path fill-rule="evenodd" clip-rule="evenodd" d="M17.9382 3.58632C18.2515 1.73442 15.8612 0.719946 14.7514 2.23382L5.84826 14.3787C4.98559 15.5555 5.82431 17.2152 7.28162 17.2152H11.0909C11.1709 17.2152 11.2317 17.2873 11.2183 17.3664L10.0261 24.4137C9.71282 26.2656 12.1031 27.2801 13.2129 25.7662L22.116 13.6213C22.9787 12.4445 22.14 10.7848 20.6827 10.7848H16.8734C16.7934 10.7848 16.7326 10.7127 16.746 10.6336L17.9382 3.58632ZM16.0806 3.21191C16.1139 3.16649 16.1375 3.16035 16.1474 3.158C16.1658 3.15365 16.1978 3.15353 16.2352 3.16931C16.2725 3.18516 16.2946 3.20828 16.3043 3.22457C16.3095 3.23326 16.3216 3.25462 16.3121 3.31018L15.1199 10.3575C14.936 11.445 15.7724 12.4371 16.8734 12.4371H20.6826C20.7174 12.4371 20.7376 12.4457 20.7516 12.4548C20.7683 12.4656 20.7855 12.4834 20.7979 12.5081C20.8104 12.5327 20.8146 12.5572 20.8134 12.577C20.8124 12.5936 20.8074 12.6151 20.7868 12.6432L11.8837 24.7881C11.8504 24.8335 11.8268 24.8397 11.8169 24.842C11.7984 24.8464 11.7665 24.8466 11.7291 24.8307C11.6918 24.8148 11.6696 24.7917 11.66 24.7754C11.6547 24.7667 11.6427 24.7454 11.6521 24.6898L12.8443 17.6425C13.0283 16.555 12.1918 15.5629 11.0909 15.5629H7.28162C7.24685 15.5629 7.22661 15.5543 7.21266 15.5452C7.19597 15.5344 7.17878 15.5166 7.16631 15.4919C7.15383 15.4673 7.14964 15.4428 7.15087 15.423C7.1519 15.4064 7.15687 15.3849 7.17745 15.3568L16.0806 3.21191Z" fill="#007AFF"/>
</svg>
