<svg width="28" height="28" viewBox="0 0 28 28" fill="none" xmlns="http://www.w3.org/2000/svg">
<path fill-rule="evenodd" clip-rule="evenodd" d="M10.9822 6.31308C10.8178 6.28755 10.637 6.28469 10.0561 6.28469H9.5742C8.38603 6.28469 7.5705 6.28587 6.9437 6.3477C6.33334 6.40791 6.01412 6.51755 5.78544 6.66448C5.49845 6.84888 5.25435 7.09247 5.06957 7.37886C4.92234 7.60707 4.81247 7.92562 4.75213 8.53471C4.69017 9.16022 4.68899 9.97405 4.68899 11.1597V15.8817C4.68899 17.5221 4.69119 18.6486 4.80517 19.4946C4.91514 20.3109 5.11183 20.7098 5.38918 20.9865C5.66652 21.2633 6.06627 21.4596 6.88426 21.5693C7.732 21.6831 8.86081 21.6853 10.5047 21.6853H17.4954C19.1392 21.6853 20.268 21.6831 21.1157 21.5693C21.9337 21.4596 22.3335 21.2633 22.6108 20.9865C22.8882 20.7098 23.0849 20.3109 23.1948 19.4946C23.3088 18.6486 23.311 17.5221 23.311 15.8817V14.7644C23.311 13.1937 23.309 12.1152 23.2038 11.302C23.1021 10.516 22.9196 10.1274 22.6647 9.85588C22.6294 9.81831 22.5929 9.7819 22.5552 9.74669C22.2832 9.49225 21.8937 9.31017 21.1061 9.20869C20.2912 9.10369 19.2105 9.10167 17.6365 9.10167H16.8254C16.8011 9.10167 16.7771 9.10168 16.7534 9.10168C16.2739 9.10181 15.9235 9.1019 15.5811 9.0487C14.8708 8.93834 14.1977 8.65825 13.6192 8.23228C13.3403 8.02693 13.0938 7.77846 12.7565 7.43841C12.7398 7.4216 12.7229 7.40458 12.7058 7.38733C12.297 6.97547 12.1677 6.84929 12.0339 6.75073C11.7238 6.52239 11.363 6.37224 10.9822 6.31308ZM10.1281 4.21998C10.6077 4.21986 10.958 4.21976 11.3005 4.27297C12.0108 4.38332 12.6839 4.66342 13.2624 5.08938C13.5412 5.29474 13.7877 5.54322 14.1251 5.88328C14.1418 5.90008 14.1586 5.91709 14.1758 5.93434C14.5846 6.3462 14.7138 6.47237 14.8477 6.57093C15.1578 6.79928 15.5186 6.94942 15.8994 7.00858C16.0637 7.03412 16.2445 7.03698 16.8254 7.03698L17.7072 7.03698C19.1931 7.03694 20.4081 7.03692 21.3711 7.16099C22.3765 7.29055 23.2541 7.57054 23.9701 8.24025C24.0403 8.30593 24.1084 8.37386 24.1742 8.44394C24.8453 9.15846 25.1259 10.0342 25.2557 11.0376C25.3801 11.9985 25.38 13.211 25.38 14.6938V15.9555C25.38 17.5039 25.3801 18.77 25.2454 19.7697C25.1046 20.8149 24.7997 21.7222 24.0738 22.4465C23.348 23.1708 22.4388 23.4751 21.3914 23.6156C20.3897 23.75 19.121 23.75 17.5693 23.75H10.4307C8.87902 23.75 7.61034 23.75 6.60857 23.6156C5.56116 23.4751 4.65202 23.1708 3.92618 22.4465C3.20035 21.7222 2.89545 20.8149 2.75463 19.7697C2.61994 18.77 2.61997 17.5039 2.62 15.9555L2.62 11.1069C2.61999 9.98696 2.61997 9.07067 2.69318 8.3316C2.76916 7.56454 2.93193 6.87809 3.32997 6.26115C3.67467 5.72688 4.13003 5.27247 4.66541 4.92848C5.28363 4.53127 5.97151 4.36885 6.74016 4.29302C7.48077 4.21996 8.39896 4.21998 9.52128 4.21999L10.0561 4.22C10.0805 4.22 10.1045 4.21999 10.1281 4.21998Z" fill="#007AFF"/>
</svg>
