<svg width="28" height="28" viewBox="0 0 28 28" fill="none" xmlns="http://www.w3.org/2000/svg">
<path d="M14 15.0227C18.6104 15.0227 21.5948 16.8734 22.7481 20.5409C23.1868 21.9358 22.4301 23.4281 21.0581 23.8741C20.8655 23.9367 20.6667 23.9762 20.4656 23.9921L20.2639 24H7.73621C6.29576 24 5.12803 22.8129 5.12803 21.3484C5.12803 21.0744 5.16982 20.802 5.2519 20.541C6.40518 16.8734 9.38962 15.0227 14 15.0227ZM6.33942 15.9535C6.46348 16.3853 6.21978 16.8375 5.79509 16.9636C4.20399 17.4362 3.17623 18.44 2.64754 20.0378C2.61758 20.1283 2.60221 20.224 2.60221 20.3205C2.60221 20.7418 2.88507 21.0796 3.24113 21.1376L3.34994 21.1464C3.79238 21.1464 4.15104 21.511 4.15104 21.9608C4.15104 22.4106 3.79238 22.7753 3.34994 22.7753C2.04462 22.7753 1 21.669 1 20.3205C1 20.0476 1.04355 19.7765 1.12895 19.5184C1.82469 17.4158 3.25173 16.022 5.34582 15.4001C5.7705 15.274 6.21535 15.5217 6.33942 15.9535ZM21.6606 15.9535C21.7846 15.5217 22.2295 15.274 22.6542 15.4001C24.7483 16.022 26.1753 17.4158 26.8711 19.5184C26.9564 19.7765 27 20.0476 27 20.3205C27 21.669 25.9554 22.7753 24.6501 22.7753C24.2076 22.7753 23.849 22.4106 23.849 21.9608C23.849 21.5519 24.1454 21.2134 24.5317 21.1552L24.7589 21.1376C25.1149 21.0796 25.3978 20.7418 25.3978 20.3205C25.3978 20.224 25.3824 20.1283 25.3525 20.0378C24.8238 18.44 23.796 17.4362 22.2049 16.9636C21.7802 16.8375 21.5365 16.3853 21.6606 15.9535ZM14 16.6516C10.0399 16.6516 7.70094 18.102 6.77801 21.037C6.74635 21.1377 6.73024 21.2427 6.73024 21.3484C6.73024 21.8698 7.11398 22.3 7.60999 22.3631L7.73618 22.3711H20.2639C20.3678 22.3711 20.4712 22.3547 20.5702 22.3225C21.0994 22.1505 21.3912 21.575 21.222 21.037C20.2991 18.102 17.9601 16.6516 14 16.6516ZM8.63068 6.69301C8.68845 7.13897 8.37968 7.5481 7.94104 7.60684C6.90904 7.74501 6.1275 8.64431 6.1275 9.71341C6.1275 10.887 7.06327 11.8383 8.2176 11.8383C8.35598 11.8383 8.4922 11.8248 8.62515 11.7981C9.05923 11.7111 9.48051 11.9983 9.56612 12.4396C9.65172 12.8809 9.36922 13.3092 8.93514 13.3962C8.70022 13.4433 8.46019 13.4672 8.2176 13.4672C6.1784 13.4672 4.5253 11.7866 4.5253 9.71341C4.5253 7.8243 5.90522 6.23645 7.73183 5.99188C8.17048 5.93314 8.57291 6.24706 8.63068 6.69301ZM20.1497 5.98491L20.2682 5.99189C22.0948 6.23645 23.4747 7.8243 23.4747 9.71341C23.4747 11.7866 21.8216 13.4672 19.7824 13.4672C19.5398 13.4672 19.2998 13.4433 19.0649 13.3962C18.6308 13.3092 18.3483 12.8809 18.4339 12.4396C18.5195 11.9983 18.9408 11.7111 19.3749 11.7981C19.5078 11.8248 19.644 11.8383 19.7824 11.8383C20.9367 11.8383 21.8725 10.887 21.8725 9.71341C21.8725 8.64431 21.091 7.74501 20.059 7.60684C19.6203 7.5481 19.3116 7.13897 19.3693 6.69301C19.4218 6.2876 19.7592 5.99131 20.1497 5.98491ZM14 4C16.4384 4 18.4151 6.00965 18.4151 8.48867C18.4151 10.9677 16.4384 12.9773 14 12.9773C11.5616 12.9773 9.5849 10.9677 9.5849 8.48867C9.5849 6.00965 11.5616 4 14 4ZM14 5.62891C12.4465 5.62891 11.1871 6.90927 11.1871 8.48867C11.1871 10.0681 12.4465 11.3484 14 11.3484C15.5535 11.3484 16.8129 10.0681 16.8129 8.48867C16.8129 6.90927 15.5535 5.62891 14 5.62891Z" fill="#007AFF"/>
</svg>
