<svg width="28" height="28" viewBox="0 0 28 28" fill="none" xmlns="http://www.w3.org/2000/svg">
<path fill-rule="evenodd" clip-rule="evenodd" d="M10.2003 2.00212C9.78684 2.01615 9.37 2.11083 8.97402 2.29568C6.0315 3.66779 3.66777 6.03152 2.29564 8.97407C1.55628 10.558 2.25294 12.4698 3.8368 13.2093C5.42075 13.9468 7.33111 13.254 8.06968 11.6705C8.80923 10.0846 10.0845 8.8093 11.6705 8.06973C13.254 7.33118 13.9468 5.42079 13.2093 3.83684C12.6547 2.64894 11.4408 1.96002 10.2003 2.00212ZM17.5605 2.00212C16.403 2.04748 15.3035 2.7232 14.7836 3.83684C14.046 5.42076 14.7413 7.33114 16.3247 8.06973C17.9107 8.80924 19.1837 10.0845 19.9232 11.6705L19.9303 11.6752C20.6688 13.2587 22.5745 13.9469 24.1585 13.2093L24.1632 13.2165C25.747 12.477 26.4366 10.558 25.6972 8.97411C24.3251 6.03153 21.9613 3.66781 19.0188 2.29568C18.6229 2.11084 18.206 2.01615 17.7925 2.00212C17.715 1.99949 17.6377 1.9991 17.5605 2.00212ZM17.596 3.96942C17.7906 3.95898 17.9927 3.99778 18.1855 4.08779C20.7078 5.26396 22.7361 7.29224 23.9122 9.81449C24.2002 10.4315 23.9468 11.1363 23.3298 11.4243C22.7129 11.7116 22.0007 11.4516 21.7129 10.8348C20.7774 8.82846 19.1645 7.21552 17.1581 6.27998C16.5413 5.9923 16.2884 5.28707 16.5757 4.67016C16.7737 4.24601 17.168 3.99239 17.596 3.96942ZM10.2785 3.97178C10.7496 3.95227 11.2017 4.2118 11.4195 4.67016C11.7068 5.28714 11.4516 5.99229 10.8348 6.27998C8.82848 7.21553 7.21553 8.82848 6.27994 10.8348C5.99225 11.4516 5.28708 11.7068 4.67012 11.4196C4.05898 11.1292 3.80092 10.4241 4.08775 9.80975C5.26393 7.28742 7.28744 5.26391 9.80971 4.08778C9.96329 4.01609 10.1214 3.97828 10.2785 3.97178ZM5.06311 14.4924C4.64955 14.5064 4.23279 14.5992 3.8368 14.7836C2.25295 15.523 1.55627 17.435 2.29564 19.0189C3.66775 21.9614 6.0315 24.3252 8.97402 25.6973C10.5579 26.4366 12.4769 25.747 13.2164 24.1632C13.2144 24.1613 13.2112 24.1605 13.2092 24.1585C13.9467 22.5745 13.2586 20.6665 11.6752 19.928C10.0893 19.1884 8.80923 17.9108 8.06968 16.3248C7.51575 15.1373 6.30377 14.4507 5.06311 14.4924ZM22.7001 14.4924C21.5441 14.5395 20.4472 15.2162 19.9279 16.3295C19.1884 17.9156 17.9154 19.1884 16.3295 19.928C14.746 20.6665 14.046 22.5745 14.7836 24.1585L14.7907 24.1632C15.5302 25.747 17.4421 26.4437 19.026 25.7044C21.9686 24.3323 24.3323 21.9686 25.7044 19.026C26.4437 17.4421 25.747 15.5301 24.1632 14.7907L24.1585 14.7836C23.7625 14.5992 23.3452 14.5057 22.9322 14.4924C22.8547 14.4898 22.7772 14.4893 22.7001 14.4924ZM5.14123 16.4574C5.61335 16.4365 6.06416 16.6956 6.27994 17.1581C7.2155 19.1644 8.82846 20.7773 10.8348 21.713C11.4516 22.0006 11.7115 22.7129 11.4243 23.3299C11.1362 23.9468 10.4314 24.2003 9.81444 23.9123C7.29216 22.7362 5.26389 20.7079 4.08774 18.1856C3.79981 17.5686 4.05317 16.8637 4.67012 16.5757C4.82437 16.5039 4.98386 16.4643 5.14123 16.4574ZM22.7356 16.4598C22.9294 16.4485 23.1323 16.486 23.3251 16.5758C23.9422 16.8637 24.2002 17.5734 23.9122 18.1903C22.7361 20.7126 20.7125 22.7362 18.1902 23.9123C17.5733 24.2003 16.8637 23.9422 16.5757 23.3252C16.2884 22.7081 16.5484 22.0077 17.1652 21.7201C19.1716 20.7845 20.7845 19.1715 21.72 17.1653C21.9178 16.7412 22.3092 16.4845 22.7356 16.4598Z" fill="#007AFF"/>
</svg>
