<svg width="28" height="28" viewBox="0 0 28 28" fill="none" xmlns="http://www.w3.org/2000/svg">
<path fill-rule="evenodd" clip-rule="evenodd" d="M10.2003 2.00212C9.78684 2.01615 9.37 2.11083 8.97402 2.29568C6.0315 3.66779 3.66777 6.03152 2.29564 8.97407C1.55628 10.558 2.25294 12.4698 3.8368 13.2093C5.42075 13.9468 7.33111 13.254 8.06968 11.6705C8.80923 10.0846 10.0845 8.8093 11.6705 8.06972C13.254 7.33118 13.9468 5.42079 13.2093 3.83684C12.6547 2.64894 11.4408 1.96002 10.2003 2.00212ZM17.5605 2.00212C16.403 2.04748 15.3035 2.7232 14.7836 3.83684C14.046 5.42076 14.7413 7.33114 16.3247 8.06972C17.9107 8.80924 19.1837 10.0845 19.9232 11.6705L19.9303 11.6752C20.6688 13.2587 22.5745 13.9469 24.1585 13.2093L24.1632 13.2165C25.747 12.477 26.4366 10.558 25.6972 8.97411C24.3251 6.03153 21.9613 3.66781 19.0188 2.29568C18.6229 2.11084 18.206 2.01615 17.7925 2.00212C17.715 1.99949 17.6377 1.9991 17.5605 2.00212ZM5.06311 14.4924C4.64955 14.5064 4.23279 14.5992 3.8368 14.7836C2.25295 15.523 1.55627 17.435 2.29564 19.0189C3.66775 21.9614 6.0315 24.3252 8.97402 25.6973C10.5579 26.4366 12.4769 25.747 13.2164 24.1632C13.2144 24.1613 13.2112 24.1605 13.2092 24.1585C13.9467 22.5745 13.2586 20.6665 11.6752 19.928C10.0893 19.1884 8.80923 17.9108 8.06968 16.3248C7.51575 15.1373 6.30377 14.4507 5.06311 14.4924ZM22.7001 14.4924C21.5441 14.5395 20.4472 15.2162 19.9279 16.3295C19.1884 17.9156 17.9154 19.1884 16.3295 19.9279C14.746 20.6665 14.046 22.5745 14.7836 24.1585L14.7907 24.1632C15.5302 25.747 17.4421 26.4437 19.026 25.7044C21.9686 24.3323 24.3323 21.9686 25.7044 19.026C26.4437 17.4421 25.7471 15.5301 24.1632 14.7907L24.1585 14.7836C23.7625 14.5992 23.3452 14.5057 22.9322 14.4924C22.8547 14.4898 22.7772 14.4893 22.7001 14.4924Z" fill="#007AFF"/>
</svg>
