<?xml version="1.0" encoding="UTF-8" standalone="no"?>
<!-- Created with Inkscape (http://www.inkscape.org/) -->

<svg
   version="1.1"
   id="svg1"
   width="1200"
   height="1226"
   viewBox="0 0 1200 1226"
   sodipodi:docname="ИМО.svg"
   xmlns:inkscape="http://www.inkscape.org/namespaces/inkscape"
   xmlns:sodipodi="http://sodipodi.sourceforge.net/DTD/sodipodi-0.dtd"
   xmlns="http://www.w3.org/2000/svg"
   xmlns:svg="http://www.w3.org/2000/svg">
  <sodipodi:namedview
     id="namedview1"
     pagecolor="#ffffff"
     bordercolor="#999999"
     borderopacity="1"
     inkscape:showpageshadow="2"
     inkscape:pageopacity="0"
     inkscape:pagecheckerboard="0"
     inkscape:deskcolor="#d1d1d1" />
  <defs
     id="defs1" />
  <path
     id="path1"
     style="stroke-linecap:round;stroke-linejoin:round"
     d="M 601.60352 112.96094 C 504.7746 112.96094 411.08148 142.83985 332.61914 197.30078 A 2.342875 2.342875 0 0 0 331.41016 198.15039 C 308.91986 213.86559 287.6223 231.49684 267.95703 251.16211 C 179.47036 339.64878 129.75586 459.66954 129.75586 584.80859 C 129.75586 709.94765 179.47036 829.97036 267.95703 918.45703 C 287.6223 938.1223 308.91986 955.75355 331.41016 971.46875 A 2.342875 2.342875 0 0 0 332.61914 972.31836 C 411.08148 1026.7793 504.7746 1056.6582 601.60352 1056.6582 C 698.3116 1056.6582 791.89237 1026.8548 870.29492 972.52344 A 2.342875 2.342875 0 0 0 872.00781 971.32031 C 894.41971 955.64164 915.64635 938.06068 935.25 918.45703 C 1023.7367 829.97036 1073.4512 709.94764 1073.4512 584.80859 C 1073.4512 459.66954 1023.7367 339.64878 935.25 251.16211 C 846.76333 162.67544 726.74257 112.96094 601.60352 112.96094 z M 594.60352 128.22852 L 594.60352 270.78516 C 557.00289 270.53634 521.55681 268.29846 489.63672 264.41211 C 490.57777 261.52258 491.49441 258.57585 492.46289 255.75195 C 507.37658 212.26679 524.93494 178.47475 543.6875 155.82617 C 553.98223 143.39261 564.54323 134.5007 575.20508 128.89453 C 581.652 128.52144 588.12128 128.32794 594.60352 128.22852 z M 608.60352 128.22852 C 727.20779 130.04762 840.57251 177.82837 924.57812 261.83398 C 1009.2928 346.5487 1057.2105 461.11547 1058.2598 580.80859 L 763.77148 580.80859 A 4.44911 4.44911 0 0 0 761.90234 580.35938 A 4.44911 4.44911 0 0 0 760.81641 580.80859 L 608.60352 580.80859 L 608.60352 128.22852 z M 557.03906 130.24609 C 550.09839 135.71448 543.33396 142.29762 536.83203 150.15039 C 517.0542 174.03725 499.19517 208.69604 484.04688 252.86523 C 482.88317 256.25836 481.77631 259.78083 480.65234 263.26367 C 454.91514 259.80725 431.63376 255.27522 411.66797 249.82812 C 404.47548 247.86586 397.76738 245.77263 391.46484 243.58789 C 438.04557 182.24275 495.65577 143.17351 556.75977 130.26758 C 556.85253 130.25843 556.94629 130.25519 557.03906 130.24609 z M 487.98633 142.46289 C 447.89843 163.91346 410.90373 196.61474 379.27539 239.0293 C 369.88173 235.17709 361.83714 231.0633 355.32812 226.74805 C 347.73993 221.71732 342.38135 216.4888 339.16016 211.14453 C 384.31622 179.43015 434.72351 156.14469 487.98633 142.46289 z M 637.00391 204.09375 C 635.55445 204.08137 634.15138 204.1512 632.79688 204.30859 C 627.37884 204.93818 622.60712 207.07261 619.24609 211.03711 C 615.88506 215.00161 614.28842 220.38071 614.10742 226.35547 C 613.92642 232.33023 615.06693 239.03397 617.27539 246.49414 C 621.69232 261.41447 630.45361 279.4094 642.82227 299.6543 C 645.50276 304.0417 648.42797 308.5779 651.44141 313.16211 C 628.7766 323.22482 615.96026 339.76049 618.52539 362.60352 C 621.76272 391.43269 648.52961 422.21232 687.13672 448.85938 C 690.80298 451.38987 694.68727 453.85442 698.57422 456.31641 C 695.67123 468.11216 694.39594 479.2554 694.77734 489.42578 C 695.81637 517.13181 709.21844 537.97214 735.53125 544.23242 C 761.84407 550.49271 795.18899 540.77431 827.25 520.94336 C 830.76226 518.77088 834.2603 516.45181 837.74414 514.03906 C 855.98022 528.62775 873.34403 541.17095 889.13086 551.04883 C 908.42697 563.12247 925.41519 571.40798 939.29688 575.16406 C 946.23776 577.04213 952.41599 577.80738 957.83398 577.17773 C 963.25204 576.54817 968.02374 574.41177 971.38477 570.44727 C 974.74579 566.48277 976.34246 561.10759 976.52344 555.13281 C 976.70448 549.15811 975.56395 542.45042 973.35547 534.99023 C 971.99894 530.40785 970.09791 525.44495 967.94336 520.30664 C 968.97882 520.07956 970.04318 519.87341 971.05469 519.62891 C 1005.7284 511.24757 1026.9268 492.42097 1023.6895 463.5918 C 1020.4521 434.76261 993.6833 403.98301 955.07617 377.33594 C 951.41064 374.80595 947.52673 372.34237 943.64062 369.88086 C 946.54353 358.08467 947.81889 346.93997 947.4375 336.76953 C 946.39842 309.0635 932.99642 288.22316 906.68359 281.96289 C 880.37078 275.70261 847.0258 285.421 814.96484 305.25195 C 811.41548 307.44737 807.87959 309.78969 804.35938 312.23047 C 767.31623 277.49281 731.62311 249.28637 701.50195 230.43945 C 682.20587 218.36582 665.21572 210.07643 651.33398 206.32031 C 646.12833 204.91176 641.35227 204.13088 637.00391 204.09375 z M 636.98828 212.5332 C 640.54515 212.57177 644.76877 213.21512 649.53906 214.50586 C 662.25982 217.94786 678.81042 225.92314 697.72461 237.75781 C 724.46572 254.48983 756.02058 279.0243 789.03711 309.08203 C 742.40259 299.71908 701.38657 299.25957 671.1582 306.56641 C 666.85431 307.60675 662.76022 308.81054 658.89258 310.17188 C 655.44626 304.98146 652.2078 299.91341 649.20117 294.99219 C 637.07731 275.14799 628.63346 257.61196 624.58594 243.93945 C 622.56217 237.1032 621.65492 231.24622 621.79297 226.68945 C 621.93101 222.13268 623.02046 219.011 624.89258 216.80273 C 626.7647 214.59447 629.52602 213.17548 633.6582 212.69531 C 634.69125 212.57527 635.80266 212.52035 636.98828 212.5332 z M 335.27344 213.87695 C 338.98851 219.88348 344.95419 225.4937 352.73828 230.6543 C 359.32583 235.02162 367.30081 239.11118 376.45703 242.92578 C 374.25256 245.95389 372.01286 248.91961 369.86328 252.04297 C 331.79847 307.35154 304.25683 374.73083 288.93164 447.875 C 256.34943 439.46893 230.58053 429.88501 212.56641 419.73438 C 198.94886 412.06114 190.10411 404.18996 185.60742 396.49609 C 208.0793 346.85156 239.35195 301.11094 278.62891 261.83398 C 296.27014 244.19275 315.26706 228.24132 335.27344 213.87695 z M 388.5957 247.55664 C 395.38909 249.94851 402.64398 252.2239 410.43555 254.34961 C 430.42575 259.80337 453.61002 264.3336 479.17188 267.79883 C 460.77628 326.33616 448.09246 397.00944 441.69336 472.87695 C 390.37512 467.97187 343.22479 460.72008 303.35352 451.41406 C 302.60158 451.23856 301.90574 451.05365 301.16016 450.87695 C 316.18069 379.01889 343.16811 312.97526 380.20508 259.16016 C 382.94406 255.18039 385.77108 251.37106 388.5957 247.55664 z M 488.15234 268.96094 C 520.52054 272.94205 556.46305 275.22239 594.60352 275.47266 L 594.60352 480.19336 C 544.87744 480.00034 496.18466 477.75844 450.56836 473.67578 C 456.99024 397.6431 469.76464 326.97526 488.15234 268.96094 z M 888.81641 286.96484 C 893.54775 287.03918 898.07475 287.57483 902.35742 288.59375 C 925.19834 294.028 937.62414 312.38809 938.60742 338.60742 C 938.91503 346.80992 938.08329 355.75268 936.10156 365.23242 C 901.06009 344.19471 858.35805 326.17326 812.72266 314.51172 C 814.92954 313.03739 817.13806 311.59914 819.34766 310.23242 C 843.99937 294.98437 868.3139 286.64271 888.81641 286.96484 z M 718.97266 311.11328 C 741.42986 310.87577 767.05474 313.53552 794.62109 319.33398 C 769.92443 338.21532 746.64912 362.8226 728.25586 391.00781 C 727.30425 392.46603 726.40518 393.91841 725.49414 395.37305 C 701.83956 368.74373 681.45358 342.831 665.04883 319.11328 C 668.47441 317.9348 672.09121 316.86528 675.9375 315.93555 C 688.37192 312.92989 702.86201 311.28367 718.97266 311.11328 z M 802.58008 321.66406 C 811.87276 330.45352 821.2232 339.53531 830.60742 349.11328 C 859.10776 378.20206 884.38376 407.39538 905.36328 434.68555 C 886.91005 462.60125 863.53863 486.78617 839.26367 504.80469 C 814.0529 484.41902 787.11307 460.02004 760.02344 432.37109 C 749.8173 421.95423 740.10558 411.53574 730.75977 401.17773 C 732.42457 398.40579 734.13759 395.62789 735.95703 392.83984 C 754.45066 364.50082 778.05045 339.94184 802.58008 321.66406 z M 657.48242 322.08203 C 674.62672 347.10639 696.12682 374.46401 721.1582 402.53711 C 711.94626 418.324 705.13994 433.78646 700.74805 448.38867 C 697.10338 446.07737 693.45174 443.76785 690.02734 441.4043 C 653.10732 415.92167 630.22364 388.31777 627.58984 364.86328 C 625.49865 346.24068 636.34472 331.41906 657.48242 322.08203 z M 817.70312 324.90039 C 860.95893 336.36409 901.34779 353.58294 934.14648 373.28125 C 929.58039 390.27572 921.53834 408.7197 909.91406 427.57617 C 888.96115 400.46949 863.9643 371.67612 835.82617 342.95703 C 829.77398 336.77988 823.72784 330.75974 817.70312 324.90039 z M 821.10742 376.62305 A 36.474808 36.474808 0 0 0 784.63281 413.09766 A 36.474808 36.474808 0 0 0 821.10742 449.57227 A 36.474808 36.474808 0 0 0 857.58203 413.09766 A 36.474808 36.474808 0 0 0 821.10742 376.62305 z M 941.4668 377.80664 C 945.11154 380.11799 948.76303 382.42936 952.1875 384.79297 C 989.10754 410.2756 1011.9912 437.8795 1014.625 461.33398 C 1017.2588 484.78847 999.4358 502.24662 966.27734 510.26172 C 965.45536 510.46041 964.58398 510.62574 963.74414 510.8125 C 959.42027 501.79963 954.0924 492.11409 947.81055 481.83203 C 938.68926 466.90239 927.56841 450.75275 914.79297 433.87109 C 927.24352 414.55654 936.13173 395.54597 941.4668 377.80664 z M 182.35938 403.82422 C 188.1066 411.5052 197.2744 418.74154 209.30664 425.52148 C 228.19103 436.16249 254.55552 445.89697 287.67578 454.4082 C 279.57203 495.18988 275.22897 537.66609 274.97656 580.80859 L 144.94922 580.80859 C 145.48813 519.33105 158.43567 459.24421 182.35938 403.82422 z M 726.55664 408.45703 C 735.60643 418.44781 744.96766 428.48721 754.80469 438.52734 C 777.30096 461.48809 799.69156 482.22449 821.14648 500.37695 C 779.16266 488.91902 740.01329 472.09962 708.06836 452.91406 C 711.83689 438.8887 717.98851 423.87664 726.55664 408.45703 z M 910.11328 440.90625 C 922.21075 456.98435 932.78915 472.35141 941.42969 486.49414 C 947.04645 495.68759 951.78063 504.31754 955.74609 512.36523 C 927.04194 517.17465 889.60508 515.70078 847.5918 506.86328 C 870.60264 489.27182 892.3702 466.70534 910.11328 440.90625 z M 299.91211 457.40625 C 300.56994 457.56181 301.18308 457.7262 301.8457 457.88086 C 342.11181 467.27903 389.55493 474.57377 441.12305 479.5 C 438.51203 512.52541 437.02464 546.40754 436.92383 580.80859 L 287.53125 580.80859 C 287.78365 538.67418 292.03136 497.19884 299.91211 457.40625 z M 706.11328 460.96484 C 741.15477 482.00209 783.85768 500.02424 829.49219 511.68555 C 827.28532 513.15986 825.07676 514.59814 822.86719 515.96484 C 792.5266 534.73168 762.69833 543.03778 739.85742 537.60352 C 717.01652 532.16926 704.59069 513.80917 703.60742 487.58984 C 703.29979 479.38682 704.13128 470.44526 706.11328 460.96484 z M 449.99609 480.30078 C 495.81921 484.40026 544.68897 486.64166 594.60352 486.83398 L 594.60352 580.80859 L 445.82227 580.80859 C 445.9235 546.6774 447.40353 513.05826 449.99609 480.30078 z M 855.50391 517.55469 C 895.78795 525.41678 931.75787 526.58894 960.08398 521.82422 C 962.51942 527.43833 964.63749 532.79917 966.04297 537.54688 C 968.06673 544.38313 968.97592 550.2401 968.83789 554.79688 C 968.69985 559.35366 967.6104 562.47729 965.73828 564.68555 C 963.86616 566.89381 961.10673 568.31078 956.97461 568.79102 C 952.84242 569.27118 947.45218 568.69951 941.0918 566.97852 C 928.37103 563.53653 911.82243 555.56519 892.9082 543.73047 C 881.28037 536.45489 868.66961 527.56795 855.50391 517.55469 z M 144.94922 588.80859 L 274.97656 588.80859 C 275.22898 631.95158 279.57186 674.42854 287.67578 715.21094 C 254.55552 723.72217 228.19103 733.45666 209.30664 744.09766 C 197.27553 750.87696 188.10866 758.11279 182.36133 765.79297 C 158.43742 710.37278 145.48813 650.28641 144.94922 588.80859 z M 287.53125 588.80859 L 436.92383 588.80859 C 437.02464 623.2104 438.51193 657.09284 441.12305 690.11914 C 389.55493 695.04537 342.11181 702.34011 301.8457 711.73828 C 301.18308 711.89294 300.56994 712.05733 299.91211 712.21289 C 292.03112 672.41941 287.78366 630.94369 287.53125 588.80859 z M 445.82227 588.80859 L 594.60352 588.80859 L 594.60352 682.78516 C 544.68897 682.97748 495.81921 685.21889 449.99609 689.31836 C 447.40343 656.56005 445.9235 622.94047 445.82227 588.80859 z M 608.60352 588.80859 L 757.38477 588.80859 C 757.28353 622.94047 755.8036 656.56005 753.21094 689.31836 C 707.38764 685.21894 658.51778 682.97748 608.60352 682.78516 L 608.60352 588.80859 z M 766.2832 588.80859 L 915.67578 588.80859 C 915.42338 630.94303 911.17567 672.41803 903.29492 712.21094 C 902.63786 712.05556 902.02512 711.89275 901.36328 711.73828 C 861.09672 702.34001 813.65328 695.04538 762.08398 690.11914 C 764.6951 657.09284 766.18239 623.2104 766.2832 588.80859 z M 928.23047 588.80859 L 1058.2598 588.80859 C 1057.7208 650.28694 1044.7725 710.37434 1020.8477 765.79492 C 1015.1004 758.11394 1005.9326 750.8776 993.90039 744.09766 C 975.01601 733.45666 948.6531 723.72217 915.5332 715.21094 C 923.63681 674.42857 927.97807 631.95155 928.23047 588.80859 z M 594.60352 689.42578 L 594.60352 894.14648 C 556.46305 894.39675 520.52054 896.67709 488.15234 900.6582 C 469.76479 842.64426 456.9903 771.97584 450.56836 695.94336 C 496.18466 691.8607 544.87744 689.6188 594.60352 689.42578 z M 608.60352 689.42578 C 658.32959 689.6188 707.02237 691.8607 752.63867 695.94336 C 746.21674 771.97584 733.44224 842.64426 715.05469 900.6582 C 682.6865 896.67709 646.74398 894.39675 608.60352 894.14648 L 608.60352 689.42578 z M 441.69336 696.74219 C 448.09251 772.6095 460.77644 843.28335 479.17188 901.82031 C 453.61002 905.28554 430.42575 909.81577 410.43555 915.26953 C 402.64398 917.39524 395.38909 919.67063 388.5957 922.0625 C 385.77108 918.24808 382.94406 914.43875 380.20508 910.45898 C 343.16842 856.64435 316.18076 790.6001 301.16016 718.74219 C 301.90574 718.56549 302.60158 718.38058 303.35352 718.20508 C 343.22479 708.89906 390.37512 701.64727 441.69336 696.74219 z M 761.51367 696.74219 C 812.83191 701.64727 859.98224 708.89906 899.85352 718.20508 C 900.60545 718.38058 901.30129 718.56549 902.04688 718.74219 C 887.02627 790.6001 860.0386 856.64435 823.00195 910.45898 C 820.26297 914.43875 817.43595 918.24808 814.61133 922.0625 C 807.81794 919.67063 800.56305 917.39524 792.77148 915.26953 C 772.78129 909.81577 749.59701 905.28554 724.03516 901.82031 C 742.43059 843.28335 755.11452 772.6095 761.51367 696.74219 z M 288.93164 721.74414 C 304.25691 794.88817 331.79878 862.26807 369.86328 917.57617 C 372.01286 920.69953 374.25256 923.66526 376.45703 926.69336 C 367.30081 930.50796 359.32583 934.59752 352.73828 938.96484 C 344.95455 944.1252 338.9905 949.73598 335.27539 955.74219 C 315.2682 941.37728 296.27079 925.42509 278.62891 907.7832 C 239.35195 868.50625 208.0793 822.76563 185.60742 773.12109 C 190.10431 765.42699 198.9495 757.55568 212.56641 749.88281 C 230.58053 739.73219 256.34943 730.14983 288.93164 721.74414 z M 914.27734 721.74414 C 946.85866 730.14972 972.62685 739.73238 990.64062 749.88281 C 1004.2575 757.55568 1013.1027 765.42699 1017.5996 773.12109 C 995.12728 822.76554 963.85502 868.50631 924.57812 907.7832 C 906.93624 925.42509 887.93883 941.37728 867.93164 955.74219 C 864.21653 949.73598 858.25248 944.1252 850.46875 938.96484 C 843.88161 934.59779 835.90746 930.50776 826.75195 926.69336 C 828.95643 923.66526 831.19612 920.69953 833.3457 917.57617 C 871.4102 862.26807 898.95265 794.88817 914.27734 721.74414 z M 594.60352 898.83398 L 594.60352 1041.3906 C 588.12128 1041.2912 581.652 1041.0977 575.20508 1040.7246 C 564.54323 1035.1184 553.98223 1026.2265 543.6875 1013.793 C 524.93494 991.14436 507.37658 957.35235 492.46289 913.86719 C 491.49421 911.04272 490.57796 908.09521 489.63672 905.20508 C 521.55681 901.31922 557.00289 899.08275 594.60352 898.83398 z M 608.60352 898.83398 C 646.20414 899.08275 681.65022 901.31922 713.57031 905.20508 C 712.62907 908.09521 711.71282 911.04272 710.74414 913.86719 C 695.83045 957.35235 678.27405 991.14436 659.52148 1013.793 C 649.22675 1026.2265 638.66433 1035.1184 628.00195 1040.7246 C 621.55504 1041.0977 615.08575 1041.2912 608.60352 1041.3906 L 608.60352 898.83398 z M 480.65234 906.35352 C 481.77649 909.83697 482.88297 913.36021 484.04688 916.75391 C 499.19516 960.9231 517.0542 995.57994 536.83203 1019.4668 C 543.33407 1027.3197 550.09827 1033.9043 557.03906 1039.373 C 556.94629 1039.364 556.85253 1039.3607 556.75977 1039.3516 C 495.65577 1026.4456 438.04557 987.3764 391.46484 926.03125 C 397.76745 923.84623 404.47539 921.75136 411.66797 919.78906 C 431.63376 914.34196 454.91514 909.80954 480.65234 906.35352 z M 722.55469 906.35352 C 748.29189 909.80954 771.57327 914.34196 791.53906 919.78906 C 798.73165 921.75136 805.43958 923.84623 811.74219 926.03125 C 765.16147 987.37641 707.55126 1026.4456 646.44727 1039.3516 C 646.3545 1039.3607 646.26074 1039.364 646.16797 1039.373 C 653.10876 1033.9043 659.87296 1027.3197 666.375 1019.4668 C 686.15283 995.57994 704.01187 960.9231 719.16016 916.75391 C 720.32406 913.36021 721.43054 909.83697 722.55469 906.35352 z M 379.27539 930.58789 C 410.90394 973.00306 447.89804 1005.7055 487.98633 1027.1562 C 434.72351 1013.474 384.31622 990.18736 339.16016 958.47266 C 342.38145 953.12888 347.7406 947.90138 355.32812 942.87109 C 361.83714 938.55583 369.88173 934.44059 379.27539 930.58789 z M 823.93359 930.58984 C 833.32621 934.44225 841.37046 938.55621 847.87891 942.87109 C 855.46643 947.90138 860.82558 953.12888 864.04688 958.47266 C 818.89198 990.18653 768.48589 1013.472 715.22461 1027.1543 C 755.31209 1005.7037 792.30578 973.00358 823.93359 930.58984 z " />
  <path
     style="-inkscape-font-specification:'sans-serif Bold';opacity:1;stroke-width:8;stroke-linecap:round;stroke-linejoin:round"
     d="M 397.45008,631.64071 V 884.3623 H 335.66617 V 711.02881 L 243.75202,884.3623 H 170.96549 V 631.64071 h 61.78392 v 173.3335 l 91.91415,-173.3335 z m 63.64591,0 h 82.94278 l 57.55214,135.24753 57.89068,-135.24753 h 82.77352 V 884.3623 H 680.64046 V 699.51838 L 622.41124,835.78153 H 581.10912 L 522.8799,699.51838 V 884.3623 H 461.09599 Z M 921.51305,674.297 q -29.7917,0 -46.21098,22.00523 -16.41929,22.00523 -16.41929,61.95319 0,39.77868 16.41929,61.78391 16.41928,22.00523 46.21098,22.00523 29.96096,0 46.38025,-22.00523 16.41929,-22.00523 16.41929,-61.78391 0,-39.94796 -16.41929,-61.95319 Q 951.47401,674.297 921.51305,674.297 Z m 0,-47.2266 q 60.93755,0 95.46885,34.86982 34.5313,34.86983 34.5313,96.3152 0,61.27609 -34.5313,96.14592 -34.5313,34.86982 -95.46885,34.86982 -60.76829,0 -95.46884,-34.86982 -34.53128,-34.86983 -34.53128,-96.14592 0,-61.44537 34.53128,-96.3152 34.70055,-34.86982 95.46884,-34.86982 z"
     id="path9"
     aria-label="ИМО" />
  <path
     id="path5"
     style="-inkscape-font-specification:'sans-serif Bold';opacity:1;stroke-width:8;stroke-linecap:round;stroke-linejoin:round"
     d="m 921.51367,617.71484 c -42.30156,0 -77.03973,12.44289 -102.09961,37.625 a 9.3565674,9.3565674 0 0 0 -0.0176,0.0156 c -24.95425,25.19892 -37.23828,60.18424 -37.23828,102.90039 0,42.60814 12.2896,77.53523 37.23828,102.72851 a 9.3565674,9.3565674 0 0 0 0.0176,0.0156 c 25.05969,25.18194 59.79776,37.62695 102.09961,37.62695 42.40974,0 77.16037,-12.44106 102.11723,-37.64258 24.9487,-25.19328 37.2382,-60.12037 37.2382,-102.72851 0,-42.71615 -12.2839,-77.70147 -37.2382,-102.90039 -24.95704,-25.20169 -59.70779,-37.64063 -102.11723,-37.64063 z m -750.54883,4.57032 a 9.3565674,9.3565674 0 0 0 -9.35547,9.35546 v 252.72071 a 9.3565674,9.3565674 0 0 0 9.35547,9.35547 h 72.78711 a 9.3565674,9.3565674 0 0 0 8.26563,-4.97266 l 74.29297,-140.10156 v 135.71875 a 9.3565674,9.3565674 0 0 0 9.35547,9.35547 h 61.7832 a 9.3565674,9.3565674 0 0 0 9.35547,-9.35547 V 631.64062 a 9.3565674,9.3565674 0 0 0 -9.35547,-9.35546 h -72.78516 a 9.3565674,9.3565674 0 0 0 -8.26562,4.97265 L 242.10547,767.36133 V 631.64062 A 9.3565674,9.3565674 0 0 0 232.75,622.28516 Z m 290.13086,0 a 9.3565674,9.3565674 0 0 0 -9.35547,9.35546 v 252.72071 a 9.3565674,9.3565674 0 0 0 9.35547,9.35547 h 61.78516 a 9.3565674,9.3565674 0 0 0 9.35547,-9.35547 V 745.2207 l 40.26953,94.23633 a 9.3565674,9.3565674 0 0 0 8.60351,5.67969 h 41.30274 a 9.3565674,9.3565674 0 0 0 8.60351,-5.67969 l 40.26954,-94.23633 v 139.14063 a 9.3565674,9.3565674 0 0 0 9.35546,9.35547 h 61.61524 a 9.3565674,9.3565674 0 0 0 9.35547,-9.35547 V 631.64062 a 9.3565674,9.3565674 0 0 0 -9.35547,-9.35546 h -82.77344 a 9.3565674,9.3565674 0 0 0 -8.60156,5.67382 L 601.61719,743.05273 552.64844,627.97656 a 9.3565674,9.3565674 0 0 0 -8.60938,-5.6914 z m 460.41797,61.36718 c 17.68333,-10e-6 29.56547,5.76157 38.88086,18.2461 9.32356,12.49549 14.5625,31.00737 14.5625,56.35742 0,25.23174 -5.23199,43.6827 -14.5625,56.1875 -9.31539,12.48453 -21.19753,18.24609 -38.88086,18.24609 -17.55746,0 -29.38851,-5.7495 -38.71289,-18.24609 -9.33051,-12.5048 -14.5625,-30.95576 -14.5625,-56.1875 0,-25.35005 5.23895,-43.86193 14.5625,-56.35742 9.32438,-12.49659 21.15543,-18.2461 38.71289,-18.2461 z" />
</svg>
