<?xml version="1.0" encoding="UTF-8" standalone="no"?>
<!-- Created with Inkscape (http://www.inkscape.org/) -->

<svg
   version="1.1"
   id="svg1"
   width="1200"
   height="1226"
   viewBox="0 0 1200 1226"
   sodipodi:docname="ИМО.svg"
   xmlns:inkscape="http://www.inkscape.org/namespaces/inkscape"
   xmlns:sodipodi="http://sodipodi.sourceforge.net/DTD/sodipodi-0.dtd"
   xmlns="http://www.w3.org/2000/svg"
   xmlns:svg="http://www.w3.org/2000/svg">
  <sodipodi:namedview
     id="namedview1"
     pagecolor="#ffffff"
     bordercolor="#999999"
     borderopacity="1"
     inkscape:showpageshadow="2"
     inkscape:pageopacity="0"
     inkscape:pagecheckerboard="0"
     inkscape:deskcolor="#d1d1d1" />
  <defs
     id="defs1">
    <clipPath
       clipPathUnits="userSpaceOnUse"
       id="clipPath5">
      <path
         id="lpe_path-effect6"
         style="opacity:0.486118;fill:#aad400;stroke:none;stroke-width:8;stroke-linecap:round;stroke-linejoin:round;stroke-dasharray:none"
         class="powerclip"
         d="m 322.08095,113.16481 h 559.0455 V 280.51738 H 322.08095 Z M 122.1482,37.982628 V 205.93641 H 1166.3457 V 37.982628 Z" />
    </clipPath>
    <clipPath
       clipPathUnits="userSpaceOnUse"
       id="clipPath7">
      <path
         id="lpe_path-effect8"
         style="opacity:0.486118;fill:#aad400;stroke:none;stroke-width:8;stroke-linecap:round;stroke-linejoin:round;stroke-dasharray:none"
         class="powerclip"
         d="M 170.42776,277.84339 H 1032.7796 V 491.87468 H 170.42776 Z m -53.6448,-81.0023 V 391.09067 H 1200 V 196.84109 Z" />
    </clipPath>
    <clipPath
       clipPathUnits="userSpaceOnUse"
       id="clipath_lpe_path-effect10">
      <path
         id="lpe_path-effect10"
         style="opacity:0.486118;fill:#aad400;stroke:none;stroke-width:8;stroke-linecap:round;stroke-linejoin:round;stroke-dasharray:none"
         class="powerclip"
         d="M 170.42776,277.84339 H 1032.7796 V 491.87468 H 170.42776 Z m -53.6448,-81.0023 V 391.09067 H 1200 V 196.84109 Z" />
    </clipPath>
    <clipPath
       clipPathUnits="userSpaceOnUse"
       id="clipath_lpe_path-effect12">
      <path
         id="lpe_path-effect12"
         style="opacity:0.486118;fill:#aad400;stroke:none;stroke-width:8;stroke-linecap:round;stroke-linejoin:round;stroke-dasharray:none"
         class="powerclip"
         d="m 322.08095,113.16481 h 559.0455 V 280.51738 H 322.08095 Z M 122.1482,37.982628 V 205.93641 H 1166.3457 V 37.982628 Z" />
    </clipPath>
    <clipPath
       clipPathUnits="userSpaceOnUse"
       id="clipPath6">
      <path
         id="lpe_path-effect7"
         style="-inkscape-font-specification:'sans-serif Bold';opacity:0.486118;stroke-width:8;stroke-linecap:round;stroke-linejoin:round"
         class="powerclip"
         d="M 124.75539,107.96086 H 1078.452 V 1064.2084 H 124.75539 Z m 796.75828,507.92391 c -42.65158,0 -77.96177,12.60332 -103.39844,38.16406 a 11.186848,11.186848 0 0 0 -0.0176,0.0195 c -25.33246,25.58083 -37.76953,61.12853 -37.76954,104.1875 0,42.95191 12.44374,78.44153 37.76954,104.01562 a 11.186848,11.186848 0 0 0 0.0176,0.0195 c 25.43645,25.56052 60.7465,38.16601 103.39844,38.16601 42.75885,0 78.08049,-12.60161 103.41603,-38.18555 25.3258,-25.57409 37.7695,-61.06371 37.7695,-104.01562 0,-43.05897 -12.437,-78.60667 -37.7695,-104.1875 C 999.59394,628.48415 964.27216,615.8847 921.51367,615.8847 Z m -750.54883,4.57031 a 11.186848,11.186848 0 0 0 -11.18554,11.18554 v 252.72071 a 11.186848,11.186848 0 0 0 11.18554,11.18554 h 72.78711 a 11.186848,11.186848 0 0 0 9.88282,-5.94531 L 324.48047,756 v 128.36133 a 11.186848,11.186848 0 0 0 11.18555,11.18554 h 61.7832 a 11.186848,11.186848 0 0 0 11.18555,-11.18554 V 631.64062 a 11.186848,11.186848 0 0 0 -11.18555,-11.18554 h -72.78516 a 11.186848,11.186848 0 0 0 -9.88281,5.94531 l -70.8457,133.60352 V 631.64062 A 11.186848,11.186848 0 0 0 232.75,620.45508 Z m 290.13086,0 a 11.186848,11.186848 0 0 0 -11.18554,11.18554 v 252.72071 a 11.186848,11.186848 0 0 0 11.18554,11.18554 h 61.78516 a 11.186848,11.186848 0 0 0 11.18555,-11.18554 V 754.15625 l 36.75781,86.01953 a 11.186848,11.186848 0 0 0 10.28515,6.79102 h 41.30274 a 11.186848,11.186848 0 0 0 10.28516,-6.79102 l 36.75781,-86.01953 v 130.20508 a 11.186848,11.186848 0 0 0 11.18554,11.18554 h 61.61524 a 11.186848,11.186848 0 0 0 11.18555,-11.18554 V 631.64062 a 11.186848,11.186848 0 0 0 -11.18555,-11.18554 h -82.77344 a 11.186848,11.186848 0 0 0 -10.2832,6.7832 l -47.57813,111.1543 -47.28906,-111.13086 a 11.186848,11.186848 0 0 0 -10.29297,-6.80664 z m 460.41797,65.02734 c -17.10683,0 -28.23897,5.43836 -37.24609,17.50977 -9.00615,12.0701 -14.19922,30.16439 -14.19922,55.26367 0,24.97991 5.18476,43.01252 14.19922,55.09375 9.00712,12.07141 20.13926,17.50976 37.24609,17.50976 17.23525,10e-6 28.41769,-5.45277 37.41406,-17.50976 9.01446,-12.08123 14.19922,-30.11384 14.19922,-55.09375 0,-25.09928 -5.19307,-43.19357 -14.19922,-55.26367 -8.99637,-12.05699 -20.17882,-17.50978 -37.41406,-17.50977 z" />
    </clipPath>
    <clipPath
       clipPathUnits="userSpaceOnUse"
       id="clipPath8">
      <path
         id="lpe_path-effect11"
         style="opacity:0.535612;fill:#d4ff2a;stroke-width:14;stroke-linecap:round;stroke-linejoin:round"
         class="powerclip"
         d="M 170.42776,107.96086 H 1032.7796 V 1061.6575 H 170.42776 Z M 608.6037,12.194698 V 580.8092 h 690.9745 V 12.194698 Z" />
    </clipPath>
  </defs>
  <g
     id="g1">
    <g
       id="g38">
      <g
         id="g88"
         clip-path="url(#clipPath6)">
        <path
           id="path1"
           style="fill:none;stroke:#000000;stroke-width:15.0936;stroke-linecap:round;stroke-linejoin:round"
           d="M 1065.9052,584.8092 A 464.30151,464.30151 0 0 1 601.6037,1049.1107 464.30151,464.30151 0 0 1 137.30219,584.8092 464.30151,464.30151 0 0 1 601.6037,120.50769 464.30151,464.30151 0 0 1 1065.9052,584.8092 Z" />
        <g
           id="g7"
           clip-path="url(#clipPath8)">
          <path
             id="circle1"
             style="fill:none;stroke:#000000;stroke-width:12.5558;stroke-linecap:round;stroke-linejoin:round"
             d="M 922.02148,584.8092 A 320.41779,465.57043 0 0 1 601.6037,1050.3796 320.41779,465.57043 0 0 1 281.18591,584.8092 320.41779,465.57043 0 0 1 601.6037,119.23877 320.41779,465.57043 0 0 1 922.02148,584.8092 Z" />
          <path
             id="ellipse1"
             style="fill:none;stroke:#000000;stroke-width:8.89822;stroke-linecap:round;stroke-linejoin:round"
             d="M 761.90311,584.8092 A 160.29941,467.39923 0 0 1 601.6037,1052.2084 160.29941,467.39923 0 0 1 441.30429,584.8092 160.29941,467.39923 0 0 1 601.6037,117.40997 160.29941,467.39923 0 0 1 761.90311,584.8092 Z" />
          <path
             id="circle2"
             style="fill:none;stroke:#000000;stroke-width:6.64105;stroke-linecap:round;stroke-linejoin:round"
             d="M 1024.4591,384.85903 A 422.85542,98.695126 0 0 1 601.6037,483.55416 422.85542,98.695126 0 0 1 178.74828,384.85903 422.85542,98.695126 0 0 1 601.6037,286.16391 422.85542,98.695126 0 0 1 1024.4591,384.85903 Z"
             clip-path="url(#clipPath7)" />
          <path
             id="circle3"
             style="fill:none;stroke:#000000;stroke-width:4.68575;stroke-linecap:round;stroke-linejoin:round"
             d="M 873.78357,196.84109 A 272.17987,76.333405 0 0 1 601.6037,273.1745 272.17987,76.333405 0 0 1 329.42383,196.84109 a 272.17987,76.333405 0 0 1 272.17987,-76.3334 272.17987,76.333405 0 0 1 272.17987,76.3334 z"
             clip-path="url(#clipPath5)" />
        </g>
        <path
           style="fill:none;stroke:#000000;stroke-width:14;stroke-linecap:butt;stroke-linejoin:round"
           d="M 601.6037,120.50769 V 1052.2084"
           id="path2" />
        <path
           id="path8"
           clip-path="url(#clipath_lpe_path-effect10)"
           style="fill:none;stroke:#000000;stroke-width:6.64105;stroke-linecap:round;stroke-linejoin:round"
           d="M 601.6037 483.55395 A 422.85542 98.695126 0 0 1 178.74823 384.85863 A 422.85542 98.695126 0 0 1 601.6037 286.16332 A 422.85542 98.695126 0 0 1 1024.4592 384.85863 A 422.85542 98.695126 0 0 1 601.6037 483.55395 z "
           transform="matrix(1,0,0,-1,-1.6037,1169.6184)" />
        <path
           style="fill:none;stroke:#000000;stroke-width:8;stroke-linecap:round;stroke-linejoin:round;stroke-dasharray:none"
           d="M 137.30219,584.8092 H 1065.9052"
           id="path4" />
        <path
           id="path9"
           style="fill:none;stroke:#000000;stroke-width:4.68575;stroke-linecap:round;stroke-linejoin:round"
           d="M 873.78357,196.84109 A 272.17987,76.333405 0 0 1 601.6037,273.1745 272.17987,76.333405 0 0 1 329.42383,196.84109 a 272.17987,76.333405 0 0 1 272.17987,-76.3334 272.17987,76.333405 0 0 1 272.17987,76.3334 z"
           clip-path="url(#clipath_lpe_path-effect12)"
           transform="matrix(1,0,0,-1,-1.6037,1169.6184)" />
        <path
           id="path31"
           d="m 857.58211,413.09842 a 36.474808,36.474808 0 0 1 -36.47481,36.47481 36.474808,36.474808 0 0 1 -36.47481,-36.47481 36.474808,36.474808 0 0 1 36.47481,-36.47481 36.474808,36.474808 0 0 1 36.47481,36.47481 z"
           style="opacity:1;fill:#000000;stroke:none;stroke-width:8;stroke-linecap:round;stroke-linejoin:round;stroke-dasharray:none" />
        <path
           id="path32"
           transform="matrix(0.69984511,0.71429464,-0.6466652,0.76277397,0,0)"
           d="m 1110.5579,-295.89258 a 247.54938,58.611176 0 0 1 -247.54936,58.61118 247.54938,58.611176 0 0 1 -247.54937,-58.61118 247.54938,58.611176 0 0 1 247.54937,-58.61117 247.54938,58.611176 0 0 1 247.54936,58.61117 z"
           style="opacity:1;fill:none;stroke:#000000;stroke-width:8.06954;stroke-linecap:round;stroke-linejoin:round;stroke-dasharray:none" />
        <path
           id="ellipse32"
           transform="matrix(0.97031197,0.24185675,0.11159221,0.99375408,0,0)"
           d="M 1025.5224,215.78168 A 204.10851,95.262955 0 0 1 821.41388,311.04463 204.10851,95.262955 0 0 1 617.30537,215.78168 204.10851,95.262955 0 0 1 821.41388,120.51872 204.10851,95.262955 0 0 1 1025.5224,215.78168 Z"
           style="opacity:1;fill:none;stroke:#000000;stroke-width:9.34157;stroke-linecap:round;stroke-linejoin:round;stroke-dasharray:none" />
        <path
           id="ellipse33"
           transform="matrix(0.5465094,-0.83745297,0.97284514,0.23145697,0,0)"
           d="m -72.433304,970.45862 a 152.62889,91.484955 0 0 1 -152.628886,91.48498 152.62889,91.484955 0 0 1 -152.6289,-91.48498 152.62889,91.484955 0 0 1 152.6289,-91.48496 152.62889,91.484955 0 0 1 152.628886,91.48496 z"
           style="opacity:1;fill:none;stroke:#000000;stroke-width:7.91626;stroke-linecap:round;stroke-linejoin:round;stroke-dasharray:none" />
      </g>
      <path
         style="-inkscape-font-specification:'sans-serif Bold';opacity:1;stroke-width:8;stroke-linecap:round;stroke-linejoin:round"
         d="M 397.45008,631.64071 V 884.3623 H 335.66617 V 711.02881 L 243.75202,884.3623 H 170.96549 V 631.64071 h 61.78392 v 173.3335 l 91.91415,-173.3335 z m 63.64591,0 h 82.94278 l 57.55214,135.24753 57.89068,-135.24753 h 82.77352 V 884.3623 H 680.64046 V 699.51838 L 622.41124,835.78153 H 581.10912 L 522.8799,699.51838 V 884.3623 H 461.09599 Z M 921.51305,674.297 q -29.7917,0 -46.21098,22.00523 -16.41929,22.00523 -16.41929,61.95319 0,39.77868 16.41929,61.78391 16.41928,22.00523 46.21098,22.00523 29.96096,0 46.38025,-22.00523 16.41929,-22.00523 16.41929,-61.78391 0,-39.94796 -16.41929,-61.95319 Q 951.47401,674.297 921.51305,674.297 Z m 0,-47.2266 q 60.93755,0 95.46885,34.86982 34.5313,34.86983 34.5313,96.3152 0,61.27609 -34.5313,96.14592 -34.5313,34.86982 -95.46885,34.86982 -60.76829,0 -95.46884,-34.86982 -34.53128,-34.86983 -34.53128,-96.14592 0,-61.44537 34.53128,-96.3152 34.70055,-34.86982 95.46884,-34.86982 z"
         id="path5"
         aria-label="ИМО" />
    </g>
  </g>
</svg>
