<svg width="48" height="48" viewBox="0 0 48 48" fill="none" xmlns="http://www.w3.org/2000/svg">
<path fill-rule="evenodd" clip-rule="evenodd" d="M19.4929 8.08683C18.9211 7.99966 18.3362 7.99981 17.5356 8.00002L17.4153 8.00004L16.5223 8.00004C14.6485 8.00001 13.1155 7.99999 11.879 8.11969C10.5957 8.24393 9.44718 8.51007 8.415 9.1609C7.52113 9.72453 6.76087 10.4691 6.18536 11.3445C5.52079 12.3553 5.24904 13.4801 5.12218 14.7369C4.99995 15.9479 4.99997 17.4492 5 19.2843L42.7925 19.1707C42.5758 17.5266 42.1073 16.0917 40.9868 14.921C40.877 14.8062 40.7633 14.6949 40.6461 14.5872C39.4506 13.4899 37.9854 13.0312 36.3067 12.8189C34.699 12.6156 32.6704 12.6156 30.1896 12.6157L28.7173 12.6157C27.7475 12.6157 27.4456 12.611 27.1712 12.5692C26.5354 12.4722 25.933 12.2262 25.4153 11.8521C25.1918 11.6906 24.976 11.4838 24.2934 10.809L24.2089 10.7253C23.6456 10.1682 23.234 9.76101 22.7684 9.42454C21.8027 8.72659 20.6789 8.26765 19.4929 8.08683ZM42.9944 22.5455L5 22.7102L5 27.2288C4.99995 29.7659 4.9999 31.8403 5.22477 33.4783C5.45988 35.1909 5.96894 36.6774 7.18079 37.8643C8.39265 39.0511 9.91054 39.5496 11.6593 39.7799C13.3319 40.0001 15.45 40.0001 18.0407 40H29.9594C32.55 40.0001 34.6681 40.0001 36.3407 39.7799C38.0895 39.5496 39.6074 39.0511 40.8192 37.8643C42.0311 36.6774 42.5401 35.1909 42.7752 33.4783C43.0001 31.8403 43.0001 29.7659 43 27.2288V25.1615C43 24.4319 43 23.196 42.9944 22.5455Z" fill="#007AFF"/>
</svg>
